<?xml version="1.0" standalone="no"?>
<!DOCTYPE svg PUBLIC "-//W3C//DTD SVG 1.1//EN" "http://www.w3.org/Graphics/SVG/1.1/DTD/svg11.dtd">
<svg xmlns="http://www.w3.org/2000/svg">
<metadata>Copyright (C) 2021 by original authors @ fontello.com</metadata>
<defs>
<font id="sbox-icons" horiz-adv-x="1000" >
<font-face font-family="sbox-icons" font-weight="400" font-stretch="normal" units-per-em="1000" ascent="850" descent="-150" />
<missing-glyph horiz-adv-x="1000" />
<glyph glyph-name="undo" unicode="&#xe800;" d="M843-25c0 0-1 0-1 0-20 0-36 13-41 32l0 0c-39 151-167 263-323 278l-2 0v-46c0 0 0 0 0 0 0-31-19-58-45-69l-1 0c-10-5-22-7-34-7-21 0-40 7-55 20l0 0-211 184c-16 13-26 34-26 56s10 43 26 56l0 0 211 184c15 13 34 20 55 20 13 0 25-3 37-8l-1 0c27-12 45-38 45-68v-49c234-19 417-212 419-448l0 0c0-37-5-72-14-106l1 3c-5-19-21-32-41-32 0 0-1 0-1 0l0 0z" horiz-adv-x="1000" />

<glyph glyph-name="undo-outline" unicode="&#xe801;" d="M843-25c0 0-1 0-1 0-20 0-36 13-41 32l0 0c-39 151-167 263-323 278l-2 0v-46c0 0 0 0 0 0 0-31-19-58-45-69l-1 0c-10-5-22-7-34-7-21 0-40 7-55 20l0 0-211 184c-16 13-26 34-26 56s10 43 26 56l0 0 211 184c15 13 34 20 55 20 13 0 25-3 37-8l-1 0c27-12 45-38 45-68v-49c234-19 417-212 419-448l0 0c0-37-5-72-14-106l1 3c-5-19-21-32-41-32 0 0-1 0-1 0l0 0z m-408 396c1 0 3 0 4 0 148 0 279-69 363-177l1-1c-43 163-189 282-363 282-2 0-4 0-5 0l0 0c-23 1-41 19-41 42 0 0 0 0 0 0v0 80l-201-174 201-175v83c1 22 19 40 41 40l0 0z" horiz-adv-x="1000" />

<glyph glyph-name="unlock" unicode="&#xe802;" d="M708 517h-291v83c0 46 37 83 83 83s83-37 83-83v0c0-23 19-42 42-42s42 19 42 42v0c0 92-75 167-167 167s-167-75-167-167v0-83h-41c-69 0-125-56-125-125v0-334c0-69 56-125 125-125v0h416c69 0 125 56 125 125v0 334c0 69-56 125-125 125v0z m-208-417c-69 0-125 56-125 125s56 125 125 125c69 0 125-56 125-125v0c0-69-56-125-125-125v0z" horiz-adv-x="1000" />

<glyph glyph-name="unlock-outline" unicode="&#xe803;" d="M708 517h-291v83c0 46 37 83 83 83s83-37 83-83v0c0-23 19-42 42-42s42 19 42 42v0c0 92-75 167-167 167s-167-75-167-167v0-83h-41c-69 0-125-56-125-125v0-334c0-69 56-125 125-125v0h416c69 0 125 56 125 125v0 334c0 69-56 125-125 125v0z m42-459c-1-23-19-41-42-41 0 0 0 0 0 0h-416c0 0 0 0 0 0-23 0-41 18-42 41l0 0v334c1 23 19 41 42 41 0 0 0 0 0 0h416c0 0 0 0 0 0 23 0 41-18 42-41l0 0z m-250 292c-69 0-125-56-125-125s56-125 125-125c69 0 125 56 125 125v0c0 69-56 125-125 125v0z m0-167c-23 0-42 19-42 42s19 42 42 42c23 0 42-19 42-42v0c0-23-19-42-42-42v0z" horiz-adv-x="1000" />

<glyph glyph-name="upload" unicode="&#xe804;" d="M333 267c0 0 0 0 0 0-13 0-25 6-33 16l0 0c-5 7-9 16-9 26 0 13 7 25 17 33l0 0 167 125c7 5 15 8 25 8s17-3 24-8l0 0 167-118c11-8 17-20 17-34 0-9-2-17-7-24l0 0c-8-11-20-17-34-17-9 0-17 2-24 7l0 0-143 101-142-107c-7-5-15-8-25-8 0 0 0 0 0 0h0z m167-292c-23 0-42 19-42 42v0 333c0 23 19 42 42 42s42-19 42-42v0-333c0-23-19-42-42-42v0z" horiz-adv-x="1000" />

<glyph glyph-name="upload-outline" unicode="&#xe805;" d="M333 267c0 0 0 0 0 0-13 0-25 6-33 16l0 0c-5 7-9 16-9 26 0 13 7 25 17 33l0 0 167 125c7 5 15 8 25 8s17-3 24-8l0 0 167-118c11-8 17-20 17-34 0-9-2-17-7-24l0 0c-8-11-20-17-34-17-9 0-17 2-24 7l0 0-143 101-142-107c-7-5-15-8-25-8 0 0 0 0 0 0h0z m167-292c-23 0-42 19-42 42v0 333c0 23 19 42 42 42s42-19 42-42v0-333c0-23-19-42-42-42v0z" horiz-adv-x="1000" />

<glyph glyph-name="video" unicode="&#xe806;" d="M875 552c-9 4-19 6-29 6-19 0-35-7-48-18l0 0-90-84v61c0 69-56 125-125 125v0h-375c-69 0-125-56-125-125v0-334c0-69 56-125 125-125v0h375c69 0 125 56 125 125v0 61l90-84c13-11 30-18 48-18 0 0 1 0 1 0l0 0c10 0 20 2 28 6l0 0c25 10 42 34 42 62v280c0 28-17 52-42 62l0 0z" horiz-adv-x="1000" />

<glyph glyph-name="video-off" unicode="&#xe807;" d="M593 140l-390 389-73 71-5 8c-25-22-41-55-42-91l0 0v-334c0-69 56-125 125-125v0h375c26 0 51 8 70 22l0 0z m282 412c-9 4-19 6-29 6-19 0-35-7-48-18l0 0-90-84v61c0 69-56 125-125 125v0h-257l495-495c7-3 16-5 25-5l0 0c0 0 0 0 1 0 10 0 20 2 28 6l0 0c25 10 42 34 42 62v280c0 28-17 52-42 62l0 0z m-167-352l-83 84-275 274-83 84-71 71c-7 6-16 9-26 9-23 0-42-19-42-42 0-10 3-19 9-26l0 0 23-22 73-74 571-571c8-8 18-12 30-12s21 4 29 12l0 0c8 8 12 18 12 30s-4 21-12 29l0 0z" horiz-adv-x="1000" />

<glyph glyph-name="video-off-outline" unicode="&#xe808;" d="M708 200l-83 84-275 274-83 84-71 71c-7 6-16 9-26 9-23 0-42-19-42-42 0-10 3-19 9-26l0 0 23-22 73-74 571-571c8-8 18-12 30-12s21 4 29 12l0 0c8 8 12 18 12 30s-4 21-12 29l0 0z m-125-58h-375c-22 1-40 19-41 41l0 0v334c0 13 7 24 16 32l0 0-58 59c-25-22-41-55-42-91l0 0v-334c0-69 56-125 125-125v0h375c26 0 51 8 70 22l0 0-64 62c-1 0-2 0-3 0s-2 0-3 0l0 0z m292 410c-9 4-19 6-29 6-19 0-35-7-48-18l0 0-90-84v61c0 69-56 125-125 125v0h-257l84-84h173c0 0 0 0 0 0 23 0 41-18 42-41l0 0v-174l197-197c7-2 15-4 24-4 0 0 1 0 1 0l0 0c10 0 20 2 28 6l0 0c25 10 42 34 42 62v280c0 28-17 52-42 62l0 0z m-42-310l-117 108 117 108z" horiz-adv-x="1000" />

<glyph glyph-name="video-outline" unicode="&#xe809;" d="M875 552c-9 4-19 6-29 6-19 0-35-7-48-18l0 0-90-84v61c0 69-56 125-125 125v0h-375c-69 0-125-56-125-125v0-334c0-69 56-125 125-125v0h375c69 0 125 56 125 125v0 61l90-84c13-11 30-18 48-18 0 0 1 0 1 0l0 0c10 0 20 2 28 6l0 0c25 10 42 34 42 62v280c0 28-17 52-42 62l0 0z m-250-369c-1-23-19-41-42-41 0 0 0 0 0 0h-375c-22 1-40 19-41 41l0 0v334c1 22 19 41 41 41l0 0h375c0 0 0 0 0 0 23 0 41-18 42-41l0 0z m208 59l-117 108 117 108z" horiz-adv-x="1000" />

<glyph glyph-name="volume-down" unicode="&#xe80a;" d="M866 501c-7 12-21 20-36 20-23 0-42-18-42-42 0-11 5-22 13-30l0 0c20-27 33-62 33-99s-13-72-33-99l0 0c-6-7-9-16-9-26 0-23 18-41 41-42l0 0c0 0 0 0 0 0 13 0 25 6 33 16l0 0c32 41 51 94 51 151s-19 110-51 152l0-1z m-180 219c-6 3-13 5-20 5s-15-2-21-5l0 0-270-185h-208c-23 0-42-19-42-42v0-286c0-23 19-42 42-42v0h208l267-183c7-4 15-7 24-7 0 0 1 0 1 0l0 0c23 1 41 19 41 42 0 0 0 0 0 0v0 666c0 0 0 0 0 0 0 16-9 30-22 37l0 0z" horiz-adv-x="1000" />

<glyph glyph-name="volume-down-outline" unicode="&#xe80b;" d="M866 501c-7 12-21 20-36 20-23 0-42-18-42-42 0-11 5-22 13-30l0 0c20-27 33-62 33-99s-13-72-33-99l0 0c-6-7-9-16-9-26 0-23 18-41 41-42l0 0c0 0 0 0 0 0 13 0 25 6 33 16l0 0c32 41 51 94 51 151s-19 110-51 152l0-1z m-180 219c-6 3-13 5-20 5s-15-2-21-5l0 0-270-185h-208c-23 0-42-19-42-42v0-286c0-23 19-42 42-42v0h208l267-183c7-4 15-7 24-7 0 0 1 0 1 0l0 0c23 1 41 19 41 42 0 0 0 0 0 0v0 666c0 0 0 0 0 0 0 16-9 30-22 37l0 0z m-61-624l-212 146c-6 4-15 7-23 7 0 0-1 0-1 0l0 0h-181v202h181c0 0 1 0 1 0 8 0 17 3 23 7l0 0 212 146z" horiz-adv-x="1000" />

<glyph glyph-name="volume-mute" unicode="&#xe80c;" d="M708-25c-9 0-16 3-23 7l0 0-268 183h-209c-23 1-41 19-41 42 0 0 0 0 0 0v0 286c0 0 0 0 0 0 0 23 18 41 41 42l0 0h209l267 183c7 5 15 8 24 8 23 0 42-19 42-42 0-1 0-1 0-1v0-666c0-23-19-42-42-42v0z" horiz-adv-x="1000" />

<glyph glyph-name="volume-mute-outline" unicode="&#xe80d;" d="M708-25c-9 0-16 3-23 7l0 0-268 183h-209c-23 1-41 19-41 42 0 0 0 0 0 0v0 286c0 0 0 0 0 0 0 23 18 41 41 42l0 0h209l267 183c7 5 15 8 24 8 23 0 42-19 42-42 0-1 0-1 0-1v0-666c0-23-19-42-42-42v0z m-458 274h180c0 0 1 0 1 0 8 0 17-3 23-7l0 0 213-146v508l-213-146c-6-4-15-7-23-7 0 0-1 0-1 0l0 0h-180z" horiz-adv-x="1000" />

<glyph glyph-name="volume-off" unicode="&#xe80e;" d="M705 263l60-60c30 41 48 92 48 147 0 57-19 110-51 152l0-1c-7 12-21 20-36 20-23 0-42-18-42-42 0-11 5-22 13-30l0 0c20-27 33-62 33-99 0-32-10-62-25-88l0 1z m170 87c-1-71-29-135-74-183l0 0 59-59c60 63 97 148 98 242l0 0c-2 114-56 216-139 281l-1 1c-8 9-19 14-31 14-23 0-42-19-42-42 0-15 8-28 20-36l0 0c66-51 108-129 110-218l0 0z m-250-7v340c0 23-19 42-42 42-9 0-16-3-23-7l0 0-185-126z m-427 192h-115c-23-1-41-19-41-42 0 0 0 0 0 0v0-286c0 0 0 0 0 0 0-23 18-41 41-42l0 0h209l267-183c7-4 15-7 24-7 0 0 0 0 0 0h0c23 0 42 19 42 42v0 90z m-2 178c-7 6-16 9-26 9-23 0-42-19-42-42 0-10 3-19 9-26l0 0 667-667c8-8 18-12 30-12s21 4 29 12l0 0c8 8 12 18 12 30s-4 21-12 29l0 0z" horiz-adv-x="1000" />

<glyph glyph-name="volume-off-outline" unicode="&#xe80f;" d="M196 713c-7 6-16 9-26 9-23 0-42-19-42-42 0-10 3-19 9-26l0 0 667-667c8-8 18-12 30-12s21 4 29 12l0 0c8 8 12 18 12 30s-4 21-12 29l0 0z m509-450l60-60c30 41 48 92 48 147 0 57-19 110-51 152l0-1c-7 12-21 20-36 20-23 0-42-18-42-42 0-11 5-22 13-30l0 0c20-27 33-62 33-99 0-32-10-62-25-88l0 1z m170 87c-1-71-29-135-74-183l0 0 59-59c60 63 97 148 98 242l0 0c-2 114-56 216-139 281l-1 1c-8 9-19 14-31 14-23 0-42-19-42-42 0-15 8-28 20-36l0 0c66-51 108-129 110-218l0 0z m-312-254l-213 146c-6 4-15 7-23 7 0 0-1 0-1 0l0 0h-180v202h135l-83 84h-94c-23-1-41-19-41-42 0 0 0 0 0 0v0-286c0 0 0 0 0 0 0-23 18-41 41-42l0 0h209l267-183c7-4 14-7 23-7l0 0c23 0 42 19 42 42v0 69l-83 84z m0 508v-199l83-83v361c0 0 0 0 0 1 0 23-19 42-42 42-9 0-17-3-24-8l0 0-195-135 60-60z" horiz-adv-x="1000" />

<glyph glyph-name="volume-up" unicode="&#xe810;" d="M762 501c-7 12-21 20-36 20-23 0-42-18-42-42 0-11 5-22 13-30l0 0c20-27 33-62 33-99s-13-72-33-99l0 0c-6-7-9-16-9-26 0-23 18-41 41-42l0 0c0 0 0 0 0 0 13 0 25 6 33 16l0 0c32 41 51 94 51 151s-19 110-51 152l0-1z m56 131c-8 9-19 14-31 14-23 0-42-19-42-42 0-15 8-28 20-36l0 0c66-51 108-129 110-218l0 0c-2-89-44-167-109-217l-1-1c-9-8-15-19-15-32 0-10 4-20 10-27l0 0c8-9 19-15 32-15h0c10 0 19 4 26 10l0 0c84 66 138 168 140 282l0 0c-2 114-56 216-139 281l-1 1z m-215 88c-6 4-13 6-21 6s-15-2-21-6l0 0-269-185h-209c-23-1-41-19-41-42 0 0 0 0 0 0v0-286c0 0 0 0 0 0 0-23 18-41 41-42l0 0h209l267-183c7-4 15-7 24-7 0 0 0 0 0 0h0c23 0 42 19 42 42v0 666c0 0 0 0 0 0 0 16-9 30-22 37l0 0z" horiz-adv-x="1000" />

<glyph glyph-name="volume-up-outline" unicode="&#xe811;" d="M762 501c-7 12-21 20-36 20-23 0-42-18-42-42 0-11 5-22 13-30l0 0c20-27 33-62 33-99s-13-72-33-99l0 0c-6-7-9-16-9-26 0-23 18-41 41-42l0 0c0 0 0 0 0 0 13 0 25 6 33 16l0 0c32 41 51 94 51 151s-19 110-51 152l0-1z m56 131c-8 9-19 14-31 14-23 0-42-19-42-42 0-15 8-28 20-36l0 0c66-51 108-129 110-218l0 0c-2-89-44-167-109-217l-1-1c-9-8-15-19-15-32 0-10 4-20 10-27l0 0c8-9 19-15 32-15h0c10 0 19 4 26 10l0 0c84 66 138 168 140 282l0 0c-2 114-56 216-139 281l-1 1z m-193 88c-6 4-13 6-21 6s-15-2-21-6l0 0-270-185h-208c-23 0-42-19-42-42v0-286c0-23 19-42 42-42v0h208l267-183c7-4 15-7 24-7 0 0 0 0 0 0h0c23 0 42 19 42 42v0 666c0 0 0 0 0 1 0 15-8 29-21 36l0 0z m-61-625l-214 147c-6 4-15 7-23 7 0 0-1 0-1 0l0 0h-180v202h180c0 0 1 0 1 0 8 0 17 3 23 7l0 0 213 146z" horiz-adv-x="1000" />

<glyph glyph-name="wifi" unicode="&#xe813;" d="M500 267c-56 0-108-22-145-59l0 0c-10-8-16-20-16-33 0-23 18-42 42-42 13 0 24 6 32 15l0 0c23 21 53 34 87 34s64-13 87-34l0 0c8-9 19-15 33-15 23 0 42 18 42 42 0 13-7 25-17 33l0 0c-37 36-88 59-145 59h0z m0 208c-106 0-202-44-270-115l0 0c-7-7-11-17-11-28 0-24 19-43 42-43 12 0 23 6 31 14l0 0c53 55 128 89 210 89s157-34 210-89l0 0c7-8 18-13 29-13l0 0c23 1 41 19 41 42 0 11-4 21-11 28l0 0c-68 71-164 115-270 115 0 0-1 0-1 0h0z m405 45c-105 101-248 164-405 164s-300-63-405-164l0 0c-6-7-10-16-10-27 0-23 19-42 42-42 10 0 19 4 26 9l0 0c90 87 212 141 348 141s257-54 347-141l0 0c7-7 17-12 28-12l0 0c12 0 22 5 30 13l0 0c7 8 12 18 12 29 0 12-5 22-13 30l0 0z" horiz-adv-x="1000" />

<glyph glyph-name="wifi-off" unicode="&#xe814;" d="M518 392l-79 78-243 243c-7 6-16 9-26 9-23 0-42-19-42-42 0-10 3-19 9-26l0 0 58-57 60-61 549-549c8-8 18-12 30-12s21 4 29 12l0 0c8 8 12 18 12 30s-4 21-12 29l0 0z m387 128c-104 101-246 163-403 163-1 0-1 0-2 0h0c-66 0-130-11-189-31l4 1 68-68c36 9 78 15 120 15 134 0 256-53 345-140l0 0c7-7 17-11 28-11h0c12 0 22 5 30 13l0 0c7 8 11 18 11 29 0 11-4 21-12 29l0 0z m-746 53c-24-17-45-34-64-53l0 0c-6-7-10-16-10-27 0-23 19-42 42-42 10 0 19 4 26 9l0 0c20 19 41 36 64 52l2 1z m549-270c8-8 18-13 30-13h0c23 1 41 19 41 42 0 11-4 21-11 28l0 0c-68 70-163 114-268 115l0 0h-7l98-98c46-16 85-41 117-74l0 0z m-398 120c-30-18-57-39-80-63l0 0c-7-7-11-17-11-28 0-24 19-43 42-43 12 0 23 6 31 14l0 0c24 23 51 43 81 57l2 1z m45-215c-10-8-16-20-16-33 0-23 18-42 42-42 13 0 24 6 32 15l0 0c23 21 53 34 87 34 27 0 53-9 73-23l0 0-105 105c-44-7-83-27-113-56l0 0z" horiz-adv-x="1000" />

<glyph glyph-name="wifi-off-outline" unicode="&#xe815;" d="M518 392l-79 78-243 243c-7 6-16 9-26 9-23 0-42-19-42-42 0-10 3-19 9-26l0 0 58-57 60-61 549-549c8-8 18-12 30-12s21 4 29 12l0 0c8 8 12 18 12 30s-4 21-12 29l0 0z m387 128c-104 101-246 163-403 163-1 0-1 0-2 0h0c-66 0-130-11-189-31l4 1 68-68c36 9 78 15 120 15 134 0 256-53 345-140l0 0c7-7 17-11 28-11h0c12 0 22 5 30 13l0 0c7 8 11 18 11 29 0 11-4 21-12 29l0 0z m-746 53c-24-17-45-34-64-53l0 0c-6-7-10-16-10-27 0-23 19-42 42-42 10 0 19 4 26 9l0 0c20 19 41 36 64 52l2 1z m549-270c8-8 18-13 30-13h0c23 1 41 19 41 42 0 11-4 21-11 28l0 0c-68 70-163 114-268 115l0 0h-7l98-98c46-16 85-41 117-74l0 0z m-398 120c-30-18-57-39-80-63l0 0c-7-7-11-17-11-28 0-24 19-43 42-43 12 0 23 6 31 14l0 0c24 23 51 43 81 57l2 1z m45-215c-10-8-16-20-16-33 0-23 18-42 42-42 13 0 24 6 32 15l0 0c23 21 53 34 87 34 27 0 53-9 73-23l0 0-105 105c-44-7-83-27-113-56l0 0z" horiz-adv-x="1000" />

<glyph glyph-name="wifi-outline" unicode="&#xe816;" d="M500 267c-56 0-108-22-145-59l0 0c-10-8-16-20-16-33 0-23 18-42 42-42 13 0 24 6 32 15l0 0c23 21 53 34 87 34s64-13 87-34l0 0c8-9 19-15 33-15 23 0 42 18 42 42 0 13-7 25-17 33l0 0c-37 36-88 59-145 59h0z m0 208c-106 0-202-44-270-115l0 0c-7-7-11-17-11-28 0-24 19-43 42-43 12 0 23 6 31 14l0 0c53 55 128 89 210 89s157-34 210-89l0 0c7-8 18-13 29-13l0 0c23 1 41 19 41 42 0 11-4 21-11 28l0 0c-68 71-164 115-270 115 0 0-1 0-1 0h0z m405 45c-105 101-248 164-405 164s-300-63-405-164l0 0c-6-7-10-16-10-27 0-23 19-42 42-42 10 0 19 4 26 9l0 0c90 87 212 141 348 141s257-54 347-141l0 0c7-7 17-12 28-12l0 0c12 0 22 5 30 13l0 0c7 8 12 18 12 29 0 12-5 22-13 30l0 0z" horiz-adv-x="1000" />

<glyph glyph-name="youtube" unicode="&#xe817;" d="M500 27c-63 0-275 2-339 19-49 12-87 50-99 98l0 1c-12 60-19 129-19 200 0 6 0 12 0 18l0-1c1 75 8 147 20 218l-1-8c13 52 52 92 102 106l1 0c100 10 217 15 335 15s235-5 350-16l-15 1c50-15 88-53 103-102l0-1v-3c12-63 18-135 19-209l0-1c-1-73-7-144-20-212l1 7c-12-52-51-93-102-107l-1 0c-63-18-301-23-335-23z m-87 497c-7 0-14-2-19-6l0 0c-12-7-20-19-20-34v-247c0-14 8-27 20-34l0 0c5-3 10-4 16-4 1 0 1 0 2 0l0 0h20l220 125c12 7 19 20 19 34 0 0 0 1 0 1l0 0c0 14-7 27-19 34l0 0-220 125c-5 4-12 6-19 6h0z" horiz-adv-x="1000" />

<glyph glyph-name="youtube-outline" unicode="&#xe818;" d="M500 27c-27 0-270 0-339 19-49 11-88 50-99 98l0 1c-12 61-19 130-19 201 0 6 0 11 0 17l0-1c1 75 8 147 20 218l-1-8c13 52 52 92 102 106l1 0c90 10 194 16 299 16 13 0 25 0 38 0l-2 0c11 0 23 0 36 0 105 0 209-6 312-17l-13 1c49-15 87-53 103-101l0-1v-4c11-63 18-135 19-209l0-1c-1-73-8-144-20-213l1 8c-13-52-52-92-102-107l-1 0c-65-19-308-23-335-23z m0 590c-15 0-32 1-50 1-94 0-186-6-277-17l11 1c-23-8-41-26-49-48l0-1c-10-55-16-118-16-182 0-3 0-6 0-9l0 0c0-2 0-4 0-6 0-68 6-134 17-199l-1 7c6-21 23-37 45-41l0 0c80-10 173-15 268-15 17 0 34 0 51 0l-3 0c15 0 33-1 50-1 94 0 186 6 277 17l-11-1c23 7 40 26 46 49l0 0c10 53 15 114 15 177 0 5 0 10 0 15l0-1c0 4 0 8 0 12 0 64-5 127-16 189l1-7c-7 23-24 41-45 49l-1 0c-45 8-240 11-312 11z m-87-418c-1 0-2 0-4 0-6 0-11 1-16 4l0 0c-11 7-19 20-19 34v247c0 14 8 27 19 34l0 0c6 4 12 6 20 6s14-2 19-6l0 0 220-125c12-7 20-20 20-34s-8-28-20-35l0 0-220-125z m38 221v-118l102 60z" horiz-adv-x="1000" />

<glyph glyph-name="activity" unicode="&#xe819;" d="M597 17h-9c-36 4-66 31-73 66l0 0-112 517-115-267c-7-15-21-25-38-25h-125c-23 0-42 19-42 42s19 42 42 42v0h98l104 241c13 30 42 51 77 51 40 0 73-29 81-66l0-1 112-517 115 266c6 15 21 26 38 26l0 0h125c23 0 42-19 42-42s-19-42-42-42v0h-97l-105-241c-13-30-42-50-76-50h0z" horiz-adv-x="1000" />

<glyph glyph-name="activity-outline" unicode="&#xe81a;" d="M597 17h-9c-36 4-66 31-73 66l0 0-112 517-115-267c-7-15-21-25-38-25h-125c-23 0-42 19-42 42s19 42 42 42v0h98l104 241c13 30 42 51 77 51 40 0 73-29 81-66l0-1 112-517 115 266c6 15 21 26 38 26l0 0h125c23 0 42-19 42-42s-19-42-42-42v0h-97l-105-241c-13-30-42-50-76-50h0z" horiz-adv-x="1000" />

<glyph glyph-name="alert-circle" unicode="&#xe81b;" d="M500 767c-230 0-417-187-417-417s187-417 417-417c230 0 417 187 417 417v0c0 230-187 417-417 417v0z m0-625c-23 0-42 19-42 42s19 42 42 42 42-19 42-42c0 0 0-1 0-1l0 0c-1-23-19-41-42-41 0 0 0 0 0 0h0z m42 166c0-23-19-42-42-42s-42 19-42 42v0 209c0 23 19 42 42 42s42-19 42-42v0z" horiz-adv-x="1000" />

<glyph glyph-name="alert-circle-outline" unicode="&#xe81c;" d="M500 767c-230 0-417-187-417-417s187-417 417-417c230 0 417 187 417 417v0c0 230-187 417-417 417v0z m0-750c-184 0-333 149-333 333s149 333 333 333c184 0 333-149 333-333v0c0-184-149-333-333-333v0z m0 541c0 0 0 0 0 0-23 0-41-18-42-41l0 0v-209c0-23 19-42 42-42s42 19 42 42v0 209c-1 23-19 41-42 41 0 0 0 0 0 0h0z" horiz-adv-x="1000" />

<glyph glyph-name="alert-triangle" unicode="&#xe81d;" d="M940 171l-320 530c-26 40-70 65-120 65s-94-25-120-64l0-1-320-530c-11-18-18-40-18-64 0-22 6-43 16-62l0 1c25-43 70-71 122-71 0 0 0 0 0 0h640c0 0 1 0 1 0 52 0 96 27 121 68l0 1c10 18 16 39 16 62 0 24-6 46-18 66l0-1z m-440-29c-23 0-42 19-42 42s19 42 42 42 42-19 42-42c0 0 0-1 0-1l0 0c-1-23-19-41-42-41 0 0 0 0 0 0h0z m42 166c0-23-19-42-42-42s-42 19-42 42v0 167c0 23 19 42 42 42s42-19 42-42v0z" horiz-adv-x="1000" />

<glyph glyph-name="alert-triangle-outline" unicode="&#xe81e;" d="M940 171l-320 530c-26 40-70 65-120 65s-94-25-120-64l0-1-320-530c-11-18-18-40-18-64 0-22 6-43 16-62l0 1c25-43 70-71 122-71 0 0 0 0 0 0h640c0 0 1 0 1 0 52 0 96 27 121 68l0 1c10 18 16 39 16 62 0 24-6 46-18 66l0-1z m-71-86c-10-16-27-27-47-27-1 0-1 0-2 0l0 0h-640c0 0-1 0-2 0-20 0-37 11-47 27l0 0c-3 6-6 13-6 21s3 15 6 21l0 0 320 531c12 15 29 24 49 24s38-9 49-24l0 0 320-530c4-6 6-14 6-21s-2-16-6-22l0 0z m-369 432c-23 0-42-19-42-42v0-167c0-23 19-42 42-42s42 19 42 42v0 167c0 23-19 42-42 42v0z" horiz-adv-x="1000" />

<glyph glyph-name="archive" unicode="&#xe81f;" d="M750 725h-500c-68-1-123-56-123-125 0-36 15-69 40-92l0 0v-408c0-69 56-125 125-125v0h416c69 0 125 56 125 125v0 408c25 23 40 56 40 92 0 68-55 124-123 125l0 0z m-125-422c0-20-16-36-36-36v0h-178c-20 0-36 16-36 36v0 11c0 20 16 36 36 36v0h178c20 0 36-16 36-36v0z m125 255h-500c-23 0-42 19-42 42s19 42 42 42v0h500c23 0 42-19 42-42s-19-42-42-42v0z" horiz-adv-x="1000" />

<glyph glyph-name="archive-outline" unicode="&#xe820;" d="M875 600c0 69-56 125-125 125v0h-500c-68-1-123-56-123-125 0-36 15-69 40-92l0 0v-408c0-69 56-125 125-125v0h416c69 0 125 56 125 125v0 408c26 23 42 55 42 92l0 0z m-625 42h500c23 0 42-19 42-42s-19-42-42-42v0h-500c-23 0-42 19-42 42s19 42 42 42v0z m500-542c0-23-19-42-42-42v0h-416c-23 0-42 19-42 42v0 375h500z" horiz-adv-x="1000" />

<glyph glyph-name="army" unicode="&#xe821;" d="M946 208c0 5-4 13-4 17-13 29-75 92-104 121 0 0 0 0 0 0 0 4 0 12 0 17-5 20-9 41-13 58-4 8-4 17-8 21-42 100-134 175-242 196-12 20-37 29-67 29-29 0-50-13-62-29-117-21-208-96-250-200 0 0 0 0 0 0 0-5-4-9-4-13 0-4-4-8-4-12-9-21-13-42-13-63 0-4 0-8 0-12 0 0 0 0 0 0-37-38-92-92-104-121-4-9-4-17-8-21 0 0 0-4 0-4v-25c0-17 4-29 12-42 8-12 17-21 29-29 0 0 4 0 4-4-8 8-8 8-4 8l0 0c4-4 9-4 17-8 0 0 0 0 0 0 0 0 4 0 4 0l4 0c17-9 29-13 50-17 4 0 9-4 13-4 79-21 187-33 304-33 112 0 221 12 304 33 8 0 17 4 21 4 4 0 8 4 12 4l5 0c20 9 41 17 54 25h0c4 0 4 4 8 4l0 0c0 0 4 0 4 5 0 0 0 0 4 4 13 8 21 16 25 25 0 0 0 0 0 4 0 0 0 0 5 4l0 0c8 13 8 25 8 38v20c4-4 0 0 0 0z m-400 130c58 0 112 4 154 12 25 4 46 8 63 13 0-5 0-9 0-13-9-4-25-8-55-12-45-9-100-13-162-13 0 4 0 4 0 8 0 0 0 5 0 5z m-71 0c0 4 0 4 0 0 4 12 13 16 21 16 8 0 17-4 21-12 0 0 0 0 0-4 0 0 0-5 0-5 0-4 0-4 0-8 0 0 0-4-4-4-5-4-13-8-17-8-8 0-13 4-17 8 0 0 0 4 0 4 0 4 0 4 0 8-4 0-4 5-4 5z m-242 25c0 0 0 4 0 0 38-9 105-17 213-21 0 0 0 0 0-4 0 0 0-5 0-5 0-4 0-4 0-8-63 0-117 4-158 13-30 4-46 8-55 12 0 4 0 8 0 13z" horiz-adv-x="1000" />

<glyph glyph-name="army-outline" unicode="&#xe822;" d="M950 213c0 4 0 4 0 8 0 4-4 4-4 8l0 0c-13 29-75 92-104 121v17c-4 21-9 41-13 58 0 4-4 4-4 8 0 5-4 9-4 13-42 100-138 175-242 196-12 16-41 29-71 29-25 0-50-8-70-29-117-21-209-96-255-204v-5c0 0 0-4 0-4 0-4-4-4-4-8 0 0 0-4 0-4 0-4-4-4-4-9 0-8-4-12-4-20 0-9-4-25-4-38v-12c-38-38-92-92-104-121 0-4-5-9-5-13 0-4 0-8-4-8l0 0v-33c0-17 4-34 13-46 8-9 16-17 29-25l0 0h0l0-4h4c0 0 4-5 4-5 4-4 4-4 9-4 0 0 4 0 8-4l8 0c21-8 38-12 59-17 0 0 4 0 4 0 4 0 4-4 8-4 88-21 192-33 304-33s217 12 309 33c4 0 8 4 8 4 4 0 8 5 8 5 4 0 4 0 9 4 0 0 4 0 4 0h4l0 0c21 8 42 16 54 25 4 0 4 4 8 4h0l9 8c12 9 21 17 25 25l0 4 4 5 0 4c4 12 8 25 8 37v21l-4 13z m-192 141l0 0c-8-4-29-8-50-12-45-9-95-13-158-13v4c58 0 108 5 150 13 21 4 42 8 58 8z m-270-33v17c4 4 8 8 16 8 9 0 13-4 17-8-8 0-8-9-8-9v-8c-5-4-9-4-13-4-4 0-8 4-12 4z m16-142c125 0 234-16 296-41-12-5-29-9-42-13h-8c-83-17-167-25-250-25-92 0-171 8-242 21l-8 0c-8 0-17 4-25 4-4 0-12 4-17 4 55 29 175 50 296 50z m-4 400c100 0 192-54 233-146-4 0-8 0-12-4-8 0-13 0-21-4-54-8-125-12-200-12-79 0-150 4-200 12-8 0-12 4-21 4-4 0-12 0-16 4 41 88 133 146 237 146z m-262-221c33-8 91-16 204-20v-13c-63 0-113 4-154 13-25 4-42 8-50 12v8z m-109-183c0 0-4 4-4 4v13c0 0 0 0 0 0 0 0 0 0 4 4l0 0c4 8 34 42 75 83 21-8 50-16 84-21 41-8 95-8 154-12-100 0-242-17-313-71z m746 4c0 0 0 0 0 0-67 54-221 67-312 71 58 0 112 4 154 13 37 4 66 12 87 20 38-37 67-70 75-83 0-4 0-4 4-8-8-4-8-13-8-13z" horiz-adv-x="1000" />

<glyph glyph-name="arrow-back" unicode="&#xe823;" d="M792 392h-494l151 181c8 8 12 18 12 30 0 23-19 42-42 42-14 0-26-7-34-18l0 0-209-250c-1-2-2-4-3-7l0 0c0-2 0-3-3-5-2-4-3-10-3-15v0c0-5 1-11 3-15l0 0c0-2 0-3 3-5 1-3 2-5 3-7l0 0 209-250c8-9 19-15 32-15h0c10 0 19 4 26 10l0 0c9 8 15 19 15 33 0 10-3 19-9 26l0 0-151 181h494c23 0 42 19 42 42s-19 42-42 42v0z" horiz-adv-x="1000" />

<glyph glyph-name="arrow-back-outline" unicode="&#xe824;" d="M792 392h-494l151 181c8 8 12 18 12 30 0 23-19 42-42 42-14 0-26-7-34-18l0 0-209-250c-1-2-2-4-3-7l0 0c0-2 0-3-3-5-2-4-3-10-3-15v0c0-5 1-11 3-15l0 0c0-2 0-3 3-5 1-3 2-5 3-7l0 0 209-250c8-9 19-15 32-15h0c10 0 19 4 26 10l0 0c9 8 15 19 15 33 0 10-3 19-9 26l0 0-151 181h494c23 0 42 19 42 42s-19 42-42 42v0z" horiz-adv-x="1000" />

<glyph glyph-name="arrow-circle-down" unicode="&#xe825;" d="M500 767c-230 0-417-187-417-417s187-417 417-417c230 0 417 187 417 417v0c0 230-187 417-417 417v0z m154-494l-125-120c-2-2-4-3-6-4l0 0c-2-2-4-3-7-4l0 0c-5-2-10-3-16-3s-11 1-16 3l0 0c-5 2-10 5-14 9l-125 125c-7 8-12 18-12 30 0 23 19 42 42 42 12 0 22-5 30-13l53-54v233c0 23 19 42 42 42s42-19 42-42v0-236l54 52c7 5 16 9 26 9 23 0 42-19 42-42 0-10-4-20-10-27l0 0z" horiz-adv-x="1000" />

<glyph glyph-name="arrow-circle-down-outline" unicode="&#xe826;" d="M596 333l-54-52v236c0 23-19 42-42 42s-42-19-42-42v0-233l-53 54c-8 8-18 13-30 13-23 0-42-19-42-42 0-12 5-22 12-30l125-125c4-4 9-7 14-9l0 0c5-2 10-3 16-3s11 1 16 3l0 0c3 1 5 2 7 4l0 0c2 1 4 2 6 4l0 0 125 120c6 7 10 17 10 27 0 23-19 42-42 42-10 0-19-4-26-9l0 0z m-96 434c-230 0-417-187-417-417s187-417 417-417c230 0 417 187 417 417v0c0 230-187 417-417 417v0z m0-750c-184 0-333 149-333 333s149 333 333 333c184 0 333-149 333-333v0c0-184-149-333-333-333v0z" horiz-adv-x="1000" />

<glyph glyph-name="arrow-circle-left" unicode="&#xe827;" d="M917 350c0 230-187 417-417 417s-417-187-417-417c0-230 187-417 417-417v0c230 0 417 187 417 417v0z m-494-154l-120 125c-2 2-3 4-4 7l0 0c-2 2-3 4-4 6l0 0c-2 5-3 10-3 16s1 11 3 16l0 0c2 6 5 10 9 14l125 125c8 8 18 12 30 12 23 0 42-19 42-42 0-12-5-22-13-30l-54-53h233c23 0 42-19 42-42s-19-42-42-42v0h-236l52-54c5-7 9-16 9-25 0-24-19-42-42-42-10 0-20 3-27 9l0 0z" horiz-adv-x="1000" />

<glyph glyph-name="arrow-circle-left-outline" unicode="&#xe828;" d="M667 392h-236l52 54c5 7 9 16 9 26 0 23-19 42-42 42-10 0-20-4-27-10l0 0-120-125c-1-2-2-4-3-6l0 0c-2-2-4-5-5-8l0 0c-1-3-2-7-2-11l0 0-1-4c0 0 0 0 0 0 0-6 1-11 3-16l0 0c2-5 5-9 9-13l0 0 125-125c8-7 18-12 30-12s21 5 29 12l0 0c7 8 12 18 12 30s-5 21-12 29l0 0-54 53h233c23 0 42 19 42 42s-19 42-42 42v0z m-167 375c-230 0-417-187-417-417s187-417 417-417c230 0 417 187 417 417v0c0 230-187 417-417 417v0z m0-750c-184 0-333 149-333 333s149 333 333 333c184 0 333-149 333-333v0c0-184-149-333-333-333v0z" horiz-adv-x="1000" />

<glyph glyph-name="arrow-circle-right" unicode="&#xe829;" d="M83 350c0-230 187-417 417-417s417 187 417 417c0 230-187 417-417 417v0c-230 0-417-187-417-417v0z m495 154l119-125c2-2 3-4 4-6l0 0c2-2 3-4 4-7l0 0c2-5 3-10 3-16s-1-11-3-16l0 0c-2-5-5-10-9-14l-125-125c-8-7-18-12-29-12-24 0-43 19-43 42 0 12 5 22 13 30l54 53h-233c-23 0-42 19-42 42s19 42 42 42v0h236l-52 54c-7 8-12 18-12 29 0 23 19 42 43 42 12 0 22-5 30-13l0 0z" horiz-adv-x="1000" />

<glyph glyph-name="arrow-circle-right-outline" unicode="&#xe82a;" d="M708 350v4c0 4-1 8-2 11l0 0c-1 3-3 6-5 8l0 0c-1 2-2 4-3 6l0 0-120 125c-7 6-16 10-27 10-23 0-42-19-42-42 0-10 4-19 9-26l0 0 51-54h-236c-23 0-42-19-42-42s19-42 42-42v0h233l-54-53c-8-8-13-18-13-30s5-22 13-30l0 0c8-7 18-12 30-12s21 5 29 12l125 125c4 4 7 9 9 14l0 0c2 5 3 10 3 16 0 0 0 0 0 0v0z m-208 417c-230 0-417-187-417-417s187-417 417-417c230 0 417 187 417 417v0c0 230-187 417-417 417v0z m0-750c-184 0-333 149-333 333s149 333 333 333c184 0 333-149 333-333v0c0-184-149-333-333-333v0z" horiz-adv-x="1000" />

<glyph glyph-name="arrow-circle-up" unicode="&#xe82b;" d="M500-67c230 0 417 187 417 417s-187 417-417 417c-230 0-417-187-417-417v0c0-230 187-417 417-417v0z m-154 495l125 119c2 2 4 3 7 4l0 0c2 2 4 3 6 4l0 0c5 2 10 3 16 3s11-1 16-3l0 0c6-2 10-5 14-9l125-125c8-8 12-18 12-29 0-24-19-43-42-43-12 0-22 5-30 13l-53 54v-233c0-23-19-42-42-42s-42 19-42 42v0 236l-54-52c-7-7-18-12-29-12-23 0-42 19-42 43 0 12 5 22 13 30l0 0z" horiz-adv-x="1000" />

<glyph glyph-name="arrow-circle-up-outline" unicode="&#xe82c;" d="M530 546c-4 4-9 7-14 9l0 0c-5 2-10 3-16 3 0 0 0 0 0 0h-4c-4 0-8-1-11-2l0 0c-3-1-6-3-8-5l0 0c-2-1-4-2-6-3l0 0-125-120c-6-7-10-16-10-27 0-23 19-42 42-42 10 0 19 4 26 9l0 0 54 51v-236c0-23 19-42 42-42s42 19 42 42v0 233l53-54c8-8 18-13 30-13s22 5 30 13l0 0c8 8 12 18 12 30s-4 21-12 29l0 0z m-30 221c-230 0-417-187-417-417s187-417 417-417c230 0 417 187 417 417v0c0 230-187 417-417 417v0z m0-750c-184 0-333 149-333 333s149 333 333 333c184 0 333-149 333-333v0c0-184-149-333-333-333v0z" horiz-adv-x="1000" />

<glyph glyph-name="arrow-down" unicode="&#xe82d;" d="M500 142c-22 0-42 10-55 26l0 0-176 213c-12 15-19 34-19 55 0 13 3 26 8 38l0-1c12 26 37 44 67 44 0 0 0 0 0 0h350c0 0 0 0 0 0 30 0 56-18 67-43l0-1c5-11 8-24 8-37 0-21-7-40-19-55l0 0-176-213c-13-16-33-26-55-26h0z" horiz-adv-x="1000" />

<glyph glyph-name="arrow-down-outline" unicode="&#xe82e;" d="M500 142c-22 0-42 10-55 26l0 0-176 213c-12 15-19 34-19 55 0 13 3 26 8 38l0-1c12 26 37 44 67 44 0 0 0 0 0 0h350c0 0 0 0 0 0 30 0 56-18 67-43l0-1c5-11 8-24 8-37 0-21-7-40-19-55l0 0-176-213c-13-16-33-26-55-26h0z m-163 291l163-200 167 200z" horiz-adv-x="1000" />

<glyph glyph-name="arrow-downward" unicode="&#xe82f;" d="M782 293c-8 9-19 15-32 15-11 0-20-3-27-9l0 0-181-151v494c0 23-19 42-42 42s-42-19-42-42v0-494l-181 151c-8 8-18 12-29 12-24 0-42-19-42-42 0-14 6-26 17-34l0 0 250-209 7-3 5-3c4-2 10-3 15-3s11 1 15 3l0 0 5 3 7 3 250 209c9 8 14 19 14 32 0 10-3 19-9 26l0 0z" horiz-adv-x="1000" />

<glyph glyph-name="arrow-downward-outline" unicode="&#xe830;" d="M782 293c-8 9-19 15-32 15-11 0-20-3-27-9l0 0-181-151v494c0 23-19 42-42 42s-42-19-42-42v0-494l-181 151c-8 8-18 12-29 12-24 0-42-19-42-42 0-14 6-26 17-34l0 0 250-209 7-3 5-3c4-2 10-3 15-3s11 1 15 3l0 0 5 3 7 3 250 209c9 8 14 19 14 32 0 10-3 19-9 26l0 0z" horiz-adv-x="1000" />

<glyph glyph-name="arrow-forward" unicode="&#xe831;" d="M208 308h495l-152-181c-5-7-8-15-8-24 0-24 19-42 42-42 12 0 22 4 30 12l0 0 209 250c1 2 3 4 4 7l0 0c0 2 2 3 2 5 2 4 3 10 3 15v0c0 5-1 11-3 15l0 0c0 2-2 3-2 5-1 3-3 5-4 7l0 0-209 250c-8 9-19 15-32 15h0c-10 0-19-4-26-10l0 0c-9-8-15-19-15-32 0-11 3-20 9-27l0 0 152-181h-495c-23 0-42-19-42-42s19-42 42-42v0z" horiz-adv-x="1000" />

<glyph glyph-name="arrow-forward-outline" unicode="&#xe832;" d="M208 308h495l-152-181c-5-7-8-15-8-24 0-24 19-42 42-42 12 0 22 4 30 12l0 0 209 250c1 2 3 4 4 7l0 0c0 2 2 3 2 5 2 4 3 10 3 15v0c0 5-1 11-3 15l0 0c0 2-2 3-2 5-1 3-3 5-4 7l0 0-209 250c-8 9-19 15-32 15h0c-10 0-19-4-26-10l0 0c-9-8-15-19-15-32 0-11 3-20 9-27l0 0 152-181h-495c-23 0-42-19-42-42s19-42 42-42v0z" horiz-adv-x="1000" />

<glyph glyph-name="arrowhead-down" unicode="&#xe833;" d="M724 334l-224-180-223 186c-8 8-18 12-29 12-24 0-42-19-42-42 0-14 6-26 17-34l0 0 250-208c7-6 16-9 27-9s19 3 26 9l0 0 250 201c10 8 16 20 16 33 0 10-3 19-9 26l0 0c-8 9-19 15-32 15-11 0-20-3-27-9l0 0z m-251 26c7-6 16-9 27-9s19 3 26 9l0 0 250 201c10 8 16 20 16 33 0 10-3 19-9 26l0 0c-8 9-19 15-32 15-11 0-20-3-27-9l0 0-224-181-223 187c-7 5-15 8-24 8-24 0-42-19-42-42 0-12 4-22 12-30l0 0z" horiz-adv-x="1000" />

<glyph glyph-name="arrowhead-down-outline" unicode="&#xe834;" d="M724 334l-224-180-223 186c-8 8-18 12-29 12-24 0-42-19-42-42 0-14 6-26 17-34l0 0 250-208c7-6 16-9 27-9s19 3 26 9l0 0 250 201c10 8 16 20 16 33 0 10-3 19-9 26l0 0c-8 9-19 15-32 15-11 0-20-3-27-9l0 0z m-251 26c7-6 16-9 27-9s19 3 26 9l0 0 250 201c10 8 16 20 16 33 0 10-3 19-9 26l0 0c-8 9-19 15-32 15-11 0-20-3-27-9l0 0-224-181-223 187c-7 5-15 8-24 8-24 0-42-19-42-42 0-12 4-22 12-30l0 0z" horiz-adv-x="1000" />

<glyph glyph-name="arrowhead-left" unicode="&#xe835;" d="M485 632c-7 6-17 10-27 10-13 0-24-6-32-15l-208-250c-6-7-9-16-9-26s3-20 9-27l0 0 201-250c8-10 20-16 33-16 0 0 0 0 0 0h0c23 1 41 19 41 42 0 10-3 19-9 26l0 0-180 224 186 224c6 7 9 16 9 26 0 13-5 24-14 32l0 0z m110-282l187 224c4 6 6 14 6 22 0 23-19 42-42 42-11 0-21-4-28-11l0 0-208-250c-6-7-9-16-9-26s3-20 9-27l0 0 201-250c8-9 19-15 32-15h0c0 0 0 0 0 0 23 0 42 19 42 42 0 10-3 19-9 26l0 0z" horiz-adv-x="1000" />

<glyph glyph-name="arrowhead-left-outline" unicode="&#xe836;" d="M485 632c-7 6-17 10-27 10-13 0-24-6-32-15l-208-250c-6-7-9-16-9-26s3-20 9-27l0 0 201-250c8-10 20-16 33-16 0 0 0 0 0 0h0c23 1 41 19 41 42 0 10-3 19-9 26l0 0-180 224 186 224c6 7 9 16 9 26 0 13-5 24-14 32l0 0z m110-282l187 224c4 6 6 14 6 22 0 23-19 42-42 42-11 0-21-4-28-11l0 0-208-250c-6-7-9-16-9-26s3-20 9-27l0 0 201-250c8-9 19-15 32-15h0c0 0 0 0 0 0 23 0 42 19 42 42 0 10-3 19-9 26l0 0z" horiz-adv-x="1000" />

<glyph glyph-name="arrowhead-right" unicode="&#xe837;" d="M783 376l-200 250c-8 10-19 16-33 16-9 0-18-4-25-9l0 0c-10-8-16-20-16-33 0-10 3-19 9-26l0 0 178-224-186-224c-6-7-9-16-9-26 0-13 5-24 14-32l0 0c7-6 17-10 27-10h0c13 0 24 6 32 15l0 0 208 250c6 7 10 17 10 27 0 10-3 19-9 26l0 0z m-491 250c-8 10-20 16-33 16-24 0-43-19-43-42 0-10 3-19 9-26l0 0 180-224-187-223c-6-7-10-17-10-27 0-13 6-24 15-32l0 0c7-6 17-10 27-10h0c13 0 24 6 32 15l0 0 208 250c6 7 9 16 9 27s-3 19-9 26l0 0z" horiz-adv-x="1000" />

<glyph glyph-name="arrowhead-right-outline" unicode="&#xe838;" d="M783 376l-200 250c-8 10-19 16-33 16-9 0-18-4-25-9l0 0c-10-8-16-20-16-33 0-10 3-19 9-26l0 0 178-224-186-224c-6-7-9-16-9-26 0-13 5-24 14-32l0 0c7-6 17-10 27-10h0c13 0 24 6 32 15l0 0 208 250c6 7 10 17 10 27 0 10-3 19-9 26l0 0z m-491 250c-8 10-20 16-33 16-24 0-43-19-43-42 0-10 3-19 9-26l0 0 180-224-187-223c-6-7-10-17-10-27 0-13 6-24 15-32l0 0c7-6 17-10 27-10h0c13 0 24 6 32 15l0 0 208 250c6 7 9 16 9 27s-3 19-9 26l0 0z" horiz-adv-x="1000" />

<glyph glyph-name="arrowhead-up" unicode="&#xe839;" d="M276 366l224 180 224-186c7-6 16-10 26-10l0 0c13 0 24 6 32 15l0 0c6 7 10 17 10 27 0 13-6 24-15 32l-250 208c-7 6-16 9-26 9s-20-3-27-9l0 0-250-201c-9-8-15-19-15-32 0-10 3-20 9-27l0 0c8-9 19-15 32-15 10 0 19 4 26 9l0 0z m251-26c-7 6-16 9-26 9s-20-3-27-9l0 0-250-201c-9-8-15-19-15-32 0-11 3-20 9-27l0 0c8-9 19-15 32-15 10 0 19 3 26 9l0 0 224 181 224-187c7-6 16-10 26-10l0 0c13 0 24 6 32 15l0 0c6 7 10 17 10 27 0 13-6 24-15 32l0 0z" horiz-adv-x="1000" />

<glyph glyph-name="arrowhead-up-outline" unicode="&#xe83a;" d="M276 366l224 180 224-186c7-6 16-10 26-10l0 0c13 0 24 6 32 15l0 0c6 7 10 17 10 27 0 13-6 24-15 32l-250 208c-7 6-16 9-26 9s-20-3-27-9l0 0-250-201c-9-8-15-19-15-32 0-10 3-20 9-27l0 0c8-9 19-15 32-15 10 0 19 4 26 9l0 0z m251-26c-7 6-16 9-26 9s-20-3-27-9l0 0-250-201c-9-8-15-19-15-32 0-11 3-20 9-27l0 0c8-9 19-15 32-15 10 0 19 3 26 9l0 0 224 181 224-187c7-6 16-10 26-10l0 0c13 0 24 6 32 15l0 0c6 7 10 17 10 27 0 13-6 24-15 32l0 0z" horiz-adv-x="1000" />

<glyph glyph-name="arrow-ios-back" unicode="&#xe83b;" d="M576 58c-13 0-24 7-32 16l0 0-201 250c-6 7-9 16-9 27s3 19 9 26l0 0 208 250c8 8 18 13 30 13 23 0 42-19 42-42 0-10-3-18-8-25l0 0-186-223 180-223c6-7 10-17 10-27 0-23-19-42-42-42 0 0-1 0-1 0l0 0z" horiz-adv-x="1000" />

<glyph glyph-name="arrow-ios-back-outline" unicode="&#xe83c;" d="M576 58c-13 0-24 7-32 16l0 0-201 250c-6 7-9 16-9 27s3 19 9 26l0 0 208 250c8 8 18 13 30 13 23 0 42-19 42-42 0-10-3-18-8-25l0 0-186-223 180-223c6-7 10-17 10-27 0-23-19-42-42-42 0 0-1 0-1 0l0 0z" horiz-adv-x="1000" />

<glyph glyph-name="arrow-ios-downward" unicode="&#xe83d;" d="M500 183c-10 0-20 4-27 10l0 0-250 208c-11 8-17 20-17 34 0 23 18 42 42 42 11 0 21-4 29-12l0 0 223-186 223 180c7 6 16 9 27 9 13 0 24-6 32-15l0 0c7-7 10-17 10-28 0-13-6-25-16-33l0 0-250-202c-7-4-15-7-23-7-1 0-2 0-3 0l0 0z" horiz-adv-x="1000" />

<glyph glyph-name="arrow-ios-downward-outline" unicode="&#xe83e;" d="M500 183c-10 0-20 4-27 10l0 0-250 208c-11 8-17 20-17 34 0 23 18 42 42 42 11 0 21-4 29-12l0 0 223-186 223 180c7 6 16 9 27 9 13 0 24-6 32-15l0 0c7-7 10-17 10-28 0-13-6-25-16-33l0 0-250-202c-7-4-15-7-23-7-1 0-2 0-3 0l0 0z" horiz-adv-x="1000" />

<glyph glyph-name="arrow-ios-forward" unicode="&#xe83f;" d="M417 58c-10 0-20 4-27 10l0 0c-9 8-15 19-15 32 0 10 4 20 10 27l0 0 186 223-180 224c-6 7-9 16-9 26 0 13 6 25 16 33l0 0c7 6 17 10 27 10 13 0 25-7 33-17l0 0 202-250c6-7 9-16 9-26s-3-20-9-27l0 0-209-250c-8-9-19-15-32-15-1 0-1 0-2 0l0 0z" horiz-adv-x="1000" />

<glyph glyph-name="arrow-ios-forward-outline" unicode="&#xe840;" d="M417 58c-10 0-20 4-27 10l0 0c-9 8-15 19-15 32 0 10 4 20 10 27l0 0 186 223-180 224c-6 7-9 16-9 26 0 13 6 25 16 33l0 0c7 6 17 10 27 10 13 0 25-7 33-17l0 0 202-250c6-7 9-16 9-26s-3-20-9-27l0 0-209-250c-8-9-19-15-32-15-1 0-1 0-2 0l0 0z" horiz-adv-x="1000" />

<glyph glyph-name="arrow-ios-upward" unicode="&#xe841;" d="M750 225c-10 0-20 4-27 10l-223 186-224-180c-7-5-16-8-25-8-13 0-25 6-33 15l0 0c-6 7-9 16-9 26 0 13 6 24 15 32l0 0 250 202c7 6 16 9 27 9s19-3 26-9l0 0 250-209c9-8 15-19 15-32 0-10-4-20-10-27l0 0c-8-9-19-15-32-15h0z" horiz-adv-x="1000" />

<glyph glyph-name="arrow-ios-upward-outline" unicode="&#xe842;" d="M750 225c-10 0-20 4-27 10l-223 186-224-180c-7-5-16-8-25-8-13 0-25 6-33 15l0 0c-6 7-9 16-9 26 0 13 6 24 15 32l0 0 250 202c7 6 16 9 27 9s19-3 26-9l0 0 250-209c9-8 15-19 15-32 0-10-4-20-10-27l0 0c-8-9-19-15-32-15h0z" horiz-adv-x="1000" />

<glyph glyph-name="arrow-left" unicode="&#xe843;" d="M564 100c0 0 0 0 0 0-21 0-39 7-54 19l0 0-212 176c-16 13-26 33-26 55s10 42 26 55l0 0 212 176c15 12 34 19 55 19 13 0 26-3 38-8l-1 0c26-11 44-37 44-67 0 0 0 0 0 0v0-350c0 0 0 0 0 0 0-30-18-55-43-67l-1 0c-11-5-24-8-38-8 0 0 0 0 0 0h0z" horiz-adv-x="1000" />

<glyph glyph-name="arrow-left-outline" unicode="&#xe844;" d="M564 100c0 0 0 0 0 0-21 0-39 7-54 19l0 0-212 176c-16 13-26 33-26 55s10 42 26 55l0 0 212 176c15 12 34 19 55 19 13 0 26-3 38-8l-1 0c26-11 44-37 44-67 0 0 0 0 0 0v0-350c0 0 0 0 0 0 0-30-18-55-43-67l-1 0c-11-5-24-8-38-8 0 0 0 0 0 0h0z m-202 250l201-167v330z" horiz-adv-x="1000" />

<glyph glyph-name="arrow-right" unicode="&#xe845;" d="M436 100c0 0 0 0 0 0-14 0-27 3-39 8l1 0c-26 12-44 37-44 67 0 0 0 0 0 0v0 350c0 0 0 0 0 0 0 30 18 56 44 67l0 0c11 5 24 8 37 8 21 0 40-7 55-19l0 0 213-176c16-13 26-33 26-55s-10-42-26-55l0 0-213-176c-15-12-33-19-54-19 0 0 0 0 0 0h0z" horiz-adv-x="1000" />

<glyph glyph-name="arrow-right-outline" unicode="&#xe846;" d="M436 100c0 0 0 0 0 0-14 0-27 3-39 8l1 0c-26 12-44 37-44 67 0 0 0 0 0 0v0 350c0 0 0 0 0 0 0 30 18 56 44 67l0 0c11 5 24 8 37 8 21 0 40-7 55-19l0 0 213-176c16-13 26-33 26-55s-10-42-26-55l0 0-213-176c-15-12-33-19-54-19 0 0 0 0 0 0h0z m0 417v-329l202 162z" horiz-adv-x="1000" />

<glyph glyph-name="arrow-up" unicode="&#xe847;" d="M675 183h-350c0 0-1 0-1 0-29 0-54 17-66 42l0 0c-5 11-8 24-8 37 0 21 7 40 19 55l0 0 176 213c13 15 33 25 55 25s42-10 55-25l0 0 176-213c12-15 19-34 19-55 0-13-3-26-8-37l0 0c-12-25-37-42-66-42 0 0-1 0-1 0h0z" horiz-adv-x="1000" />

<glyph glyph-name="arrow-up-outline" unicode="&#xe848;" d="M675 183h-350c0 0-1 0-1 0-29 0-54 17-66 42l0 0c-5 11-8 24-8 37 0 21 7 40 19 55l0 0 176 213c13 15 33 25 55 25s42-10 55-25l0 0 176-213c12-15 19-34 19-55 0-13-3-26-8-37l0 0c-12-25-37-42-66-42 0 0-1 0-1 0h0z m-342 84h330l-163 201z" horiz-adv-x="1000" />

<glyph glyph-name="arrow-upward" unicode="&#xe849;" d="M218 407c8-9 19-15 33-15 10 0 19 3 26 9l0 0 181 152v-495c0-23 19-42 42-42s42 19 42 42v0 495l181-152c8-7 18-12 30-12 23 0 42 19 42 42 0 14-7 26-18 34l0 0-250 209-7 4-5 2c-4 2-10 3-15 3s-11-1-15-3l0 0-5-2-7-4-250-209c-9-8-14-19-14-32 0-10 3-19 9-26l0 0z" horiz-adv-x="1000" />

<glyph glyph-name="arrow-upward-outline" unicode="&#xe84a;" d="M218 407c8-9 19-15 33-15 10 0 19 3 26 9l0 0 181 152v-495c0-23 19-42 42-42s42 19 42 42v0 495l181-152c8-7 18-12 30-12 23 0 42 19 42 42 0 14-7 26-18 34l0 0-250 209-7 4-5 2c-4 2-10 3-15 3s-11-1-15-3l0 0-5-2-7-4-250-209c-9-8-14-19-14-32 0-10 3-19 9-26l0 0z" horiz-adv-x="1000" />

<glyph glyph-name="at" unicode="&#xe84b;" d="M542 767c-12 1-25 2-39 2-230 0-417-187-417-417 0-169 100-314 244-380l3-1c49-23 106-37 167-38l0 0c96 0 184 32 254 87l-1-1c10 8 17 20 17 34 0 9-4 18-9 25l0 0c-8 10-19 16-33 16-9 0-18-4-25-9l0 0c-55-42-125-67-200-67-184 0-333 149-333 333s149 333 333 333c10 0 20 0 30-1l-1 0c170-20 301-164 301-338 0-1 0-3 0-4l0 0v-28c0 0 0 0 0 0 0-39-32-71-71-71-1 0-2 0-3 0l0 0c-38 5-67 37-67 75 0 1 0 2 0 3l0 0v180c0 23-19 42-42 42v0c0 0 0 0 0 0-22 0-39-16-42-37l0 0c-37 35-88 57-143 57h0c-116-1-210-96-210-212 0-117 95-212 212-212 70 0 132 34 171 86l0 1c27-41 73-68 126-68 41 0 78 16 105 43l0 0c30 28 48 67 48 111 0 1 0 1 0 2l0 0v28c0 1 0 3 0 4 0 217-163 396-373 422l-2 0z m-76-546c-71 0-129 58-129 129s58 129 129 129c71 0 129-58 129-129v0c0-71-58-129-129-129v0z" horiz-adv-x="1000" />

<glyph glyph-name="at-outline" unicode="&#xe84c;" d="M542 767c-12 1-25 2-39 2-230 0-417-187-417-417 0-169 100-314 244-380l3-1c49-23 106-37 167-38l0 0c96 0 184 32 254 87l-1-1c10 8 17 20 17 34 0 9-4 18-9 25l0 0c-8 10-19 16-33 16-9 0-18-4-25-9l0 0c-55-42-125-67-200-67-184 0-333 149-333 333s149 333 333 333c10 0 20 0 30-1l-1 0c170-20 301-164 301-338 0-1 0-3 0-4l0 0v-28c0 0 0 0 0 0 0-39-32-71-71-71-1 0-2 0-3 0l0 0c-38 5-67 37-67 75 0 1 0 2 0 3l0 0v180c0 23-19 42-42 42v0c0 0 0 0 0 0-22 0-39-16-42-37l0 0c-37 35-88 57-143 57h0c-116-1-210-96-210-212 0-117 95-212 212-212 70 0 132 34 171 86l0 1c27-41 73-68 126-68 41 0 78 16 105 43l0 0c30 28 48 67 48 111 0 1 0 1 0 2l0 0v28c0 1 0 3 0 4 0 217-163 396-373 422l-2 0z m-76-546c-71 0-129 58-129 129s58 129 129 129c71 0 129-58 129-129v0c0-71-58-129-129-129v0z" horiz-adv-x="1000" />

<glyph glyph-name="attach" unicode="&#xe84d;" d="M387-25c-72 0-137 30-184 78l0 0c-48 46-79 110-79 182 0 67 27 127 69 172l0 0 307 310c31 31 74 50 121 50 1 0 3 0 4 0l0 0c52 0 99-22 133-57l0 0c34-33 55-79 55-131 0-48-18-92-49-124l0 0-308-310c-19-19-46-31-75-31 0 0-1 0-1 0h0c0 0 0 0 0 0-32 0-60 13-81 34l0 0c-21 20-34 49-34 80 0 30 12 57 31 77l0 0 284 286c6 4 14 7 23 7 23 0 42-19 42-42 0-9-3-17-7-23l0 0-285-286c-4-5-7-11-7-18 0-9 4-17 10-22l0 0c6-5 13-9 22-9l0 0c0 0 1 0 1 0 6 0 12 2 16 6l0 0 308 310c16 17 25 41 25 66 0 28-12 54-31 72l0 0c-18 19-44 31-72 31-25 0-48-10-65-25l0 0-307-308c-28-30-45-70-45-113 0-49 21-92 54-123l0 0c32-33 76-53 125-54l0 0c0 0 0 0 1 0 41 0 79 17 107 44l0 0 308 310c8 8 18 13 30 13 23 0 42-19 42-42 0-12-5-22-12-30l0 0-308-310c-43-43-102-70-167-70-1 0-1 0-1 0h0z" horiz-adv-x="1000" />

<glyph glyph-name="attach-2" unicode="&#xe84e;" d="M500-67c-2 0-4 0-6 0-133 0-241 106-244 238l0 0v424c3 96 81 172 177 172 1 0 2 0 3 0l0 0c1 0 3 0 4 0 96 0 174-76 177-172l0 0v-425c0-61-50-111-111-111s-111 50-111 111v0 392c1 23 19 41 42 41 0 0 0 0 0 0h0c0 0 0 0 0 0 23 0 41-18 42-41l0 0v-392c3-13 14-23 28-23s24 10 27 23l0 0v425c-3 49-44 88-94 88-1 0-3 0-4 0l0 0c-1 0-2 0-3 0-50 0-91-39-94-88l0 0v-424c4-86 74-154 161-154 2 0 4 0 6 0l0 0c2 0 4 0 6 0 87 0 157 68 161 154l0 0v424c0 2 0 4 0 7 0 23 18 42 42 42s42-19 42-42c0-3-1-5-1-7l0 0v-424c-3-132-111-238-244-238-2 0-4 0-6 0l0 0z" horiz-adv-x="1000" />

<glyph glyph-name="attach-2-outline" unicode="&#xe84f;" d="M500-67c-2 0-4 0-6 0-133 0-241 106-244 238l0 0v424c3 96 81 172 177 172 1 0 2 0 3 0l0 0c1 0 3 0 4 0 96 0 174-76 177-172l0 0v-425c0-61-50-111-111-111s-111 50-111 111v0 392c1 23 19 41 42 41 0 0 0 0 0 0h0c0 0 0 0 0 0 23 0 41-18 42-41l0 0v-392c3-13 14-23 28-23s24 10 27 23l0 0v425c-3 49-44 88-94 88-1 0-3 0-4 0l0 0c-1 0-2 0-3 0-50 0-91-39-94-88l0 0v-424c4-86 74-154 161-154 2 0 4 0 6 0l0 0c2 0 4 0 6 0 87 0 157 68 161 154l0 0v424c0 2 0 4 0 7 0 23 18 42 42 42s42-19 42-42c0-3-1-5-1-7l0 0v-424c-3-132-111-238-244-238-2 0-4 0-6 0l0 0z" horiz-adv-x="1000" />

<glyph glyph-name="attach-outline" unicode="&#xe850;" d="M387-25c-72 0-137 30-184 78l0 0c-48 46-79 110-79 182 0 67 27 127 69 172l0 0 307 310c31 31 74 50 121 50 1 0 3 0 4 0l0 0c52 0 99-22 133-57l0 0c34-33 55-79 55-131 0-48-18-92-49-124l0 0-308-310c-19-19-46-31-75-31 0 0-1 0-1 0h0c0 0 0 0 0 0-32 0-60 13-81 34l0 0c-21 20-34 49-34 80 0 30 12 57 31 77l0 0 284 286c6 4 14 7 23 7 23 0 42-19 42-42 0-9-3-17-7-23l0 0-285-286c-4-5-7-11-7-18 0-9 4-17 10-22l0 0c6-5 13-9 22-9l0 0c0 0 1 0 1 0 6 0 12 2 16 6l0 0 308 310c16 17 25 41 25 66 0 28-12 54-31 72l0 0c-18 19-44 31-72 31-25 0-48-10-65-25l0 0-307-308c-28-30-45-70-45-113 0-49 21-92 54-123l0 0c32-33 76-53 125-54l0 0c0 0 0 0 1 0 41 0 79 17 107 44l0 0 308 310c8 8 18 13 30 13 23 0 42-19 42-42 0-12-5-22-12-30l0 0-308-310c-43-43-102-70-167-70-1 0-1 0-1 0h0z" horiz-adv-x="1000" />

<glyph glyph-name="award" unicode="&#xe851;" d="M792-15l-97 375c34 42 55 97 55 156 0 0 0 1 0 1v0c0 138-112 250-250 250s-250-112-250-250v0c0 0 0 0 0 0 0-60 21-115 56-157l0 0-98-375c-1-3-1-6-1-10 0-23 19-42 42-42 8 0 15 2 21 6l0 0 222 131 237-131c6-4 13-6 21-6 0 0 0 0 0 0h0c0 0 1 0 1 0 23 0 42 19 42 42 0 3 0 7-1 10l0 0z m-292 698c92 0 167-75 167-167s-75-167-167-167-167 75-167 167c0 0 0 1 0 1v0c1 92 75 166 167 166 0 0 0 0 0 0v0z" horiz-adv-x="1000" />

<glyph glyph-name="award-outline" unicode="&#xe852;" d="M792-15l-97 375c34 42 55 97 55 156 0 0 0 1 0 1v0c0 138-112 250-250 250s-250-112-250-250v0c0 0 0 0 0 0 0-60 21-115 56-157l0 0-98-375c-1-3-1-6-1-10 0-23 19-42 42-42 8 0 15 2 21 6l0 0 222 131 237-131c6-4 13-6 21-6 0 0 0 0 0 0h0c0 0 1 0 1 0 23 0 42 19 42 42 0 3 0 7-1 10l0 0z m-292 698c92 0 167-75 167-167s-75-167-167-167-167 75-167 167c0 0 0 1 0 1v0c1 92 75 166 167 166 0 0 0 0 0 0v0z m13-529c-6 4-13 6-21 6s-15-2-21-6l0 0-156-92 60 238c35-21 78-33 124-33s88 12 124 34l-1-1 63-242z" horiz-adv-x="1000" />

<glyph glyph-name="backspace" unicode="&#xe853;" d="M839 683h-407c-32 0-61-12-83-32l0 0-4-5-250-311c-6-7-9-16-9-26 0-12 5-23 13-31l0 0 250-229c22-20 51-32 84-32 0 0 0 0 0 0h407c0 0 0 0 0 0 42 0 77 34 77 76l0 0v515c-1 42-35 75-77 75 0 0-1 0-1 0l0 0z m-143-387c8-8 12-18 12-29s-4-22-12-30l0 0c-8-7-18-12-29-12s-22 5-30 12l-54 54-53-54c-8-8-18-13-30-13s-22 5-30 13l0 0c-7 8-12 18-12 30s5 21 12 29l0 0 55 54-55 54c-7 8-12 18-12 30 0 23 19 42 42 42 12 0 22-5 30-13l53-54 54 54c7 6 16 9 26 9 23 0 42-19 42-42 0-10-3-19-9-26l0 0-54-54z" horiz-adv-x="1000" />

<glyph glyph-name="backspace-outline" unicode="&#xe854;" d="M839 683h-407c-32 0-61-12-83-32l0 0-4-5-250-311c-6-7-9-16-9-26 0-12 5-23 13-31l0 0 250-229c22-20 51-32 84-32 0 0 0 0 0 0h407c0 0 0 0 0 0 42 0 77 34 77 76l0 0v515c-1 42-35 75-77 75 0 0-1 0-1 0l0 0z m-6-583h-401c-11 0-21 4-28 11l0 0-222 202 224 278c7 6 16 9 26 9 0 0 0 0 0 0h401z m-363 137c8-8 18-13 30-13s22 5 30 13l0 0 53 54 54-54c8-7 18-12 30-12s21 5 29 12l0 0c8 8 12 18 12 30s-4 21-12 29l-54 54 54 54c6 7 9 16 9 26 0 23-19 42-42 42-10 0-19-3-26-9l0 0-54-54-53 54c-8 8-18 13-30 13-23 0-42-19-42-42 0-12 5-22 12-30l0 0 55-54-55-54c-7-8-12-18-12-29s5-22 12-30l0 0z" horiz-adv-x="1000" />

<glyph glyph-name="bar-chart" unicode="&#xe855;" d="M500 683c0 0 0 0 0 0-23 0-41-18-42-41l0 0v-625c0-23 19-42 42-42s42 19 42 42v0 625c-1 23-19 41-42 41 0 0 0 0 0 0h0z m292-333c-23 0-42-19-42-42v0-291c3-20 21-36 42-36s38 16 41 36l0 0v291c0 0 0 0 0 0 0 23-18 42-41 42l0 0z m-584 167c-23-1-41-19-41-42 0 0 0 0 0 0v0-458c3-20 21-36 42-36s38 16 41 36l0 0v458c0 23-19 42-42 42v0z" horiz-adv-x="1000" />

<glyph glyph-name="bar-chart-2" unicode="&#xe856;" d="M500 517c-23 0-42-19-42-42v0-458c0-23 19-42 42-42s42 19 42 42v0 458c0 23-19 42-42 42v0z m292 166c0 0 0 0 0 0-23 0-41-18-42-41l0 0v-625c3-20 21-36 42-36s38 16 41 36l0 0v625c0 22-19 41-41 41l0 0z m-584-333c-23-1-41-19-41-42 0 0 0 0 0 0v0-291c3-20 21-36 42-36s38 16 41 36l0 0v291c0 23-19 42-42 42v0z" horiz-adv-x="1000" />

<glyph glyph-name="bar-chart-2-outline" unicode="&#xe857;" d="M500 517c-23 0-42-19-42-42v0-458c0-23 19-42 42-42s42 19 42 42v0 458c0 23-19 42-42 42v0z m292 166c0 0 0 0 0 0-23 0-41-18-42-41l0 0v-625c3-20 21-36 42-36s38 16 41 36l0 0v625c0 22-19 41-41 41l0 0z m-584-333c-23-1-41-19-41-42 0 0 0 0 0 0v0-291c3-20 21-36 42-36s38 16 41 36l0 0v291c0 23-19 42-42 42v0z" horiz-adv-x="1000" />

<glyph glyph-name="bar-chart-outline" unicode="&#xe858;" d="M500 683c0 0 0 0 0 0-23 0-41-18-42-41l0 0v-625c0-23 19-42 42-42s42 19 42 42v0 625c-1 23-19 41-42 41 0 0 0 0 0 0h0z m292-333c-23 0-42-19-42-42v0-291c3-20 21-36 42-36s38 16 41 36l0 0v291c0 0 0 0 0 0 0 23-18 42-41 42l0 0z m-584 167c-23-1-41-19-41-42 0 0 0 0 0 0v0-458c3-20 21-36 42-36s38 16 41 36l0 0v458c0 23-19 42-42 42v0z" horiz-adv-x="1000" />

<glyph glyph-name="battery" unicode="&#xe859;" d="M660 600h-486c-51-3-91-45-91-96 0-2 0-3 0-5l0 0v-298c0-1 0-3 0-5 0-51 40-93 91-96l0 0h486c51 3 90 45 90 96 0 2 0 3 0 5l0 0v298c0 2 0 3 0 5 0 51-39 93-90 96l0 0z m215-125c-23 0-42-19-42-42v0-166c0-23 19-42 42-42s42 19 42 42v0 166c0 23-19 42-42 42v0z" horiz-adv-x="1000" />

<glyph glyph-name="battery-outline" unicode="&#xe85a;" d="M660 600h-486c-51-3-91-45-91-96 0-2 0-3 0-5l0 0v-298c0-1 0-3 0-5 0-51 40-93 91-96l0 0h486c51 3 90 45 90 96 0 2 0 3 0 5l0 0v298c0 2 0 3 0 5 0 51-39 93-90 96l0 0z m7-399c0-1 0-1 0-2 0-6-3-12-7-16l0 0h-486c-4 4-7 10-7 16 0 1 0 1 0 2l0 0v298c0 1 0 1 0 2 0 6 3 12 7 16l0 0h485c5-4 8-10 8-16 0-1 0-2 0-2l0 0z m208 274c-23 0-42-19-42-42v0-166c0-23 19-42 42-42s42 19 42 42v0 166c0 23-19 42-42 42v0z" horiz-adv-x="1000" />

<glyph glyph-name="behance" unicode="&#xe85b;" d="M615 384c0 0 0 0 0 0-23 0-42-19-42-42 0-1 0-3 0-4l0 0h86c0 1 0 3 0 4 0 23-19 42-42 42-1 0-1 0-2 0l0 0z m-220-46h-51v-81h42c42 0 60 13 60 41s-19 40-51 40z m37 74c0 22-15 35-40 35h-48v-72h36c37 0 52 13 52 37z m68 355c-230 0-417-187-417-417s187-417 417-417c230 0 417 187 417 417v0c0 230-187 417-417 417v0z m-96-550h-112v271h112c49 0 81-26 81-67 0-1 0-2 0-3 0-28-20-52-47-57l0 0c34 0 62-28 62-63 0-2 0-3 0-5l0 0c0-48-42-76-96-76z m148 250h125v-21h-125z m156-161h-137v-6c0-1 0-3 0-4 0-25 20-45 45-45 0 0 0 0 0 0h0c2 0 4 0 6 0 17 0 31 11 36 26l0 0h50c-9-37-42-64-81-64-3 0-6 0-9 0l0 0c-2 0-5 0-8 0-50 0-90 40-90 90 0 2 0 3 0 5l0 0v19c0 2 0 4 0 5 0 49 39 88 88 88 2 0 5 0 7 0l0 0c2 0 3 0 5 0 49 0 88-39 88-88 0-2 0-4 0-6l0 0z" horiz-adv-x="1000" />

<glyph glyph-name="behance-outline" unicode="&#xe85c;" d="M500 767c-230 0-417-187-417-417s187-417 417-417c230 0 417 187 417 417v0c0 230-187 417-417 417v0z m0-750c-184 0-333 149-333 333s149 333 333 333c184 0 333-149 333-333v0c0-184-149-333-333-333v0z m-62 342c27 5 47 29 47 57 0 1 0 2 0 3l0 0c0 41-32 66-81 66h-112v-270h112c54 2 96 30 96 78 0 1 0 2 0 3 0 35-28 63-62 63l0 0z m-94 88h48c25 0 40-13 40-35s-16-37-52-37h-36z m42-190h-42v81h51c32 0 49-16 49-42s-17-39-60-39z m229 164c-2 0-5 0-7 0-49 0-88-39-88-88 0-2 0-4 0-6l0 0v-19c0-2 0-4 0-6 0-50 40-90 90-90 2 0 5 0 7 0l0 0c3 0 6-1 10-1 40 0 73 28 81 65l0 1h-50c-5-15-19-26-36-26-2 0-4 0-6 0l0 0c0 0 0 0 0 0-25 0-45 20-45 45 0 1 0 3 0 4l0 0v6h137v20c0 2 0 5 0 7 0 49-39 88-88 88-2 0-3 0-5 0l0 0z m41-83h-84c0 1 0 2 0 3 0 23 19 42 42 42 0 0 0 0 0 0h0c23 0 41-19 41-42 0-1 0-2 0-3l0 0z" horiz-adv-x="1000" />

<glyph glyph-name="bell" unicode="&#xe85d;" d="M855 216l-75 76v186c0 1 0 2 0 3 0 143-104 261-240 283l-2 0c-11 2-24 2-37 2-155 0-281-125-281-280v-194l-75-76c-12-12-20-29-20-48 0-37 31-68 68-68h140v-14c4-85 74-153 160-153 2 0 5 0 7 0l0 0c2 0 5 0 7 0 86 0 156 68 160 153l0 0v14h140c38 0 68 31 68 68 0 19-8 36-20 48l0 0z m-272-130c-5-39-37-69-77-69-2 0-4 0-6 0l0 0c-2 0-4 0-5 0-40 0-73 30-78 69l0 0v14h166z" horiz-adv-x="1000" />

<glyph glyph-name="bell-off" unicode="&#xe85e;" d="M662 70l-25 25-54 56-3 3-359 357c0-4 0-8 0-12s0-9 0-14l0 1v-194l-75-76c-12-12-20-29-20-48 0-37 30-67 67-68l0 0h140v-14c4-85 74-153 160-153 2 0 5 0 7 0l0 0c2 0 5 0 7 0 80 0 147 58 160 134l0 1z m-79 16c-5-39-37-69-77-69-2 0-4 0-6 0l0 0c-2 0-4 0-5 0-40 0-73 30-78 69l0 0v14h166z m-286 585l554-554c8 7 15 15 19 25l0 0c3 8 5 17 5 26 0 19-8 36-20 48l0 0-75 76v186c0 1 0 2 0 3 0 143-104 261-240 283l-2 0c-11 2-24 3-37 3-71 0-136-27-185-70l0 0c-9-7-16-14-24-22l0 0z m566-625l-54 54-84 83-396 397-61 62-72 71c-7 6-16 9-26 9-23 0-42-19-42-42 0-10 3-19 9-26l0 0 93-96 73-70 308-308 56-55 24-25 113-113c8-8 18-12 30-12s21 4 29 12l0 0c8 8 12 18 12 30s-4 21-12 29l0 0z" horiz-adv-x="1000" />

<glyph glyph-name="bell-off-outline" unicode="&#xe85f;" d="M371 635c34 31 80 50 130 50 9 0 18-1 27-2l-1 0c97-16 170-100 170-200 0-2 0-3 0-4l0 0v-187c0 0 0 0 0 0 0-9 2-18 4-26l0 1 150-150c8 7 15 15 19 25l0 0c3 8 5 17 5 26 0 19-8 36-20 48l0 0-75 76v186c0 1 0 2 0 3 0 143-104 261-240 283l-2 0c-11 2-24 3-37 3-71 0-136-27-185-70l0 0c-9-7-16-14-24-22l0 0 61-60c6 7 12 14 18 20l0 0z m212-487l-34 35h-319l49 50c15 15 24 36 24 58 0 1 0 1 0 1v0 137l-83 83c0-4 0-8 0-12s0-8 0-13l0 1v-196l-75-76c-12-12-20-29-20-48 0-37 31-68 68-68h140v-14c4-85 74-153 160-153 2 0 5 0 7 0l0 0c2 0 5 0 7 0 80 0 147 58 160 134l0 1-35 32z m-83-131c-2 0-4 0-5 0-40 0-73 30-78 69l0 0v14h166v-14c-5-39-37-69-77-69-2 0-4 0-6 0l0 0z m363 29l-54 54-84 83-396 397-61 62-72 71c-7 6-16 9-26 9-23 0-42-19-42-42 0-10 3-19 9-26l0 0 93-96 73-70 308-308 56-55 24-25 113-113c8-8 18-12 30-12s21 4 29 12l0 0c8 8 12 18 12 30s-4 21-12 29l0 0z" horiz-adv-x="1000" />

<glyph glyph-name="bell-outline" unicode="&#xe860;" d="M855 216l-75 76v186c0 1 0 2 0 3 0 143-104 261-240 283l-2 0c-11 2-24 2-37 2-155 0-281-125-281-280v-194l-75-76c-12-12-20-29-20-48 0-37 31-68 68-68h140v-14c4-85 74-153 160-153 2 0 5 0 7 0l0 0c2 0 5 0 7 0 86 0 156 68 160 153l0 0v14h140c38 0 68 31 68 68 0 19-8 36-20 48l0 0z m-272-130c-5-39-37-69-77-69-2 0-4 0-6 0l0 0c-2 0-4 0-5 0-40 0-73 30-78 69l0 0v14h166z m-353 97l49 50c15 15 24 36 24 58 0 1 0 1 0 1v0 194c0 0 0 0 0 0 0 60 26 113 68 149l0 0c34 31 80 50 130 50 9 0 18-1 27-2l-1 0c97-16 170-100 170-200 0-2 0-3 0-4l0 0v-187c0 0 0 0 0-1 0-22 9-43 24-58l0 0 49-50z" horiz-adv-x="1000" />

<glyph glyph-name="bluetooth" unicode="&#xe861;" d="M568 350l167 158c9 9 15 21 15 35 0 16-8 30-21 39l0 0-194 134c-8 6-18 9-29 9-8 0-16-2-22-5l0 0c-15-8-26-24-26-42v-258l-133 166c-8 9-19 15-32 15-24 0-43-19-43-42 0-10 4-20 10-27l0 0 145-182-146-185c-5-7-8-16-8-25 0-13 6-25 15-33l0 0c7-4 15-7 23-7 1 0 2 0 3 0l0 0c13 0 24 6 32 16l0 0 134 169v-262c0 0 0 0 0 0 0-27 22-48 48-48 0 0 1 0 1 0l0 0c0 0 0 0 0 0 11 0 20 3 28 9l0 0 193 132c11 8 19 21 20 36l0 0c0 1 0 3 0 4 0 13-5 25-14 34l0 0z m-26 260l104-72-104-98z m0-520v169l103-99z" horiz-adv-x="1000" />

<glyph glyph-name="bluetooth-outline" unicode="&#xe862;" d="M568 350l167 158c9 9 15 21 15 35 0 16-8 30-21 39l0 0-194 134c-8 6-18 9-29 9-8 0-16-2-22-5l0 0c-15-8-26-24-26-42v-258l-133 166c-8 9-19 15-32 15-24 0-43-19-43-42 0-10 4-20 10-27l0 0 145-182-146-185c-5-7-8-16-8-25 0-13 6-25 15-33l0 0c7-4 15-7 23-7 1 0 2 0 3 0l0 0c13 0 24 6 32 16l0 0 134 169v-262c0 0 0 0 0 0 0-27 22-48 48-48 0 0 1 0 1 0l0 0c0 0 0 0 0 0 11 0 20 3 28 9l0 0 193 132c11 8 19 21 20 36l0 0c0 1 0 3 0 4 0 13-5 25-14 34l0 0z m-26 260l104-72-104-98z m0-520v169l103-99z" horiz-adv-x="1000" />

<glyph glyph-name="book" unicode="&#xe863;" d="M792 725h-500c-69 0-125-56-125-125v0-500c0-69 56-125 125-125v0h500c23 1 41 19 41 42 0 0 0 0 0 0v0 666c0 0 0 0 0 0 0 23-18 41-41 42l0 0z m-500-667c-23 0-42 19-42 42s19 42 42 42v0h458v-84z" horiz-adv-x="1000" />

<glyph glyph-name="bookmark" unicode="&#xe864;" d="M250-25c0 0 0 0 0 0-7 0-14 2-20 5l0 0c-13 7-22 21-22 37 0 0 0 0 0 0v0 611c0 1 0 1 0 2 0 52 41 93 92 95l0 0h400c51-2 92-43 92-95 0-1 0-1 0-2l0 0v-611c0-15-8-29-21-36l0 0c-6-4-13-6-21-6s-15 2-21 6l0 0-236 134-222-134c-6-4-13-6-21-6h0z" horiz-adv-x="1000" />

<glyph glyph-name="bookmark-outline" unicode="&#xe865;" d="M254-28c-23 0-42 19-42 42v0l-6 611c0 1 0 3 0 4 0 51 40 92 91 94l0 0 399 2c52-1 93-43 93-95 0 0 0-1 0-1v0l6-611c0 0 0 0 0 0 0-15-8-29-20-36l0 0c-6-4-13-6-21-6s-15 2-21 6l0 0-238 131-220-134c-6-4-13-6-21-7l0 0z m240 232c0 0 0 0 0 0 8 0 15-2 21-5l0 0 196-109-5 540c0 8-6 14-9 13l-400-3c-3 0-8-6-8-14l5-538 179 110c6 4 13 6 21 6l0 0z" horiz-adv-x="1000" />

<glyph glyph-name="book-open" unicode="&#xe866;" d="M875 669c-9 7-20 12-33 12-4 0-8-1-12-2l0 0-288-74v-595l315 81c23 6 39 26 39 50 0 1 0 1 0 1v0 486c0 17-8 32-21 41l0 0z m-417-64l-289 74c-3 1-7 1-11 1-13 0-24-4-33-11l0 0c-12-10-20-24-20-41 0 0 0 0 0 0v0-486c0 0 0 0 0-1 0-24 16-44 39-50l0 0 314-81z" horiz-adv-x="1000" />

<glyph glyph-name="book-open-outline" unicode="&#xe867;" d="M859 674c-7 6-17 10-27 10-3 0-6 0-8-1l0 0-324-73-324 73c-3 1-6 1-9 1-23 0-42-19-42-42v-509c0-20 14-37 33-41l0 0 333-75h18l334 75c19 5 32 21 32 41 0 0 0 0 0 0v0 509c0 13-6 24-16 32l0 0z m-651-84l250-57v-423l-250 57z m584-423l-250-57v423l250 57z" horiz-adv-x="1000" />

<glyph glyph-name="book-outline" unicode="&#xe868;" d="M792 725h-500c-69 0-125-56-125-125v0-500c0-69 56-125 125-125v0h500c23 1 41 19 41 42 0 0 0 0 0 0v0 666c0 0 0 0 0 0 0 23-18 41-41 42l0 0z m-500-83h458v-417h-458c0 0 0 0-1 0-14 0-29-3-42-7l1 0v382c0 23 19 42 42 42v0z m0-584c-23 0-42 19-42 42s19 42 42 42v0h458v-84z" horiz-adv-x="1000" />

<glyph glyph-name="briefcase" unicode="&#xe869;" d="M292-25h416v583h-41v63c0 57-47 104-104 104v0h-125c0 0-1 0-1 0-57 0-104-47-104-104 0 0 0 0 0 0v0-63h-41z m125 646c0 12 9 21 21 21v0h125c11-1 20-10 20-21 0 0 0 0 0 0v0-63h-166z m375-63v-583c69 0 125 56 125 125v0 333c0 69-56 125-125 125v0z m-584 0c-69 0-125-56-125-125v0-333c0-69 56-125 125-125v0z" horiz-adv-x="1000" />

<glyph glyph-name="briefcase-outline" unicode="&#xe86a;" d="M792 558h-125v63c0 57-47 104-104 104v0h-125c0 0-1 0-1 0-57 0-104-47-104-104 0 0 0 0 0 0v0-63h-125c-69 0-125-56-125-125v0-333c0-69 56-125 125-125v0h584c69 0 125 56 125 125v0 333c0 69-56 125-125 125v0z m-167-83v-417h-250v417z m-208 146c0 12 9 21 21 21v0h125c11-1 20-10 20-21 0 0 0 0 0 0v0-63h-166z m-250-521v333c0 0 0 0 0 0 0 23 18 41 41 42l0 0h84v-417h-84c-23 1-41 19-41 42 0 0 0 0 0 0v0z m666 0c0 0 0 0 0 0 0-23-18-41-41-42l0 0h-84v417h84c23-1 41-19 41-42 0 0 0 0 0 0v0z" horiz-adv-x="1000" />

<glyph glyph-name="browser" unicode="&#xe86b;" d="M750 725h-500c-69 0-125-56-125-125v0-500c0-69 56-125 125-125v0h500c69 0 125 56 125 125v0 500c0 69-56 125-125 125v0z m-250-125c23 0 42-19 42-42s-19-42-42-42c-23 0-42 19-42 42v0c0 23 19 42 42 42v0z m-167 0c0 0 1 0 1 0 23 0 42-19 42-42s-19-42-42-42c-23 0-42 19-42 42v0c0 0 0 0 0 0 0 23 18 41 41 42l0 0z m459-500c0-23-19-42-42-42v0h-500c-23 0-42 19-42 42v0 292h584z" horiz-adv-x="1000" />

<glyph glyph-name="browser-outline" unicode="&#xe86c;" d="M750 725h-500c-69 0-125-56-125-125v0-500c0-69 56-125 125-125v0h500c69 0 125 56 125 125v0 500c0 69-56 125-125 125v0z m42-625c0-23-19-42-42-42v0h-500c-23 0-42 19-42 42v0 292h584z m-584 375v125c0 23 19 42 42 42v0h500c23 0 42-19 42-42v0-125z" horiz-adv-x="1000" />

<glyph glyph-name="brush" unicode="&#xe86d;" d="M297 327c-73-18-127-83-128-161l0 0v-129c0-11 9-20 20-20v0l135 2c63 0 118 37 143 91l0 1c10 20 16 43 16 68 0 84-68 152-152 152-12 0-24-2-35-4l1 0z m506 337c-15 12-34 19-55 19-26 0-49-11-65-28l0 0-266-267c-3-4-5-8-5-13s2-10 5-14l0 0 93-94c4-4 9-6 14-6s10 2 14 6l0 0 270 269c16 16 25 37 25 61 0 0 0 1 0 1l0 0c0 1 0 1 0 2 0 26-12 49-30 64l0 0z" horiz-adv-x="1000" />

<glyph glyph-name="brush-outline" unicode="&#xe86e;" d="M833 565c0 1 0 2 0 2 0 32-13 61-34 82l0 0c-21 21-51 33-83 33s-61-12-83-33l0 0-275-275h-10c-98-3-177-82-179-180l0 0-2-136c0 0 0 0 0-1 0-11 5-21 12-29l0 0c8-7 18-11 29-11h0l136 2c98 2 177 81 180 179l0 0v10l275 275c21 21 34 49 34 81 0 1 0 1 0 1v0z m-489-462l-94-3v93c1 54 46 98 100 98 0 0 0 0 0 0h0c0 0 0 0 0 0 50 0 90-40 90-90 0 0 0-1 0-1v0c-2-53-43-95-96-97l0 0z m396 439l-244-244c-7 10-14 18-22 26l0 0c-8 8-16 15-25 22l-1 0 244 244c6 6 15 10 24 10s18-4 24-10l0 0c6-6 10-15 10-24 0 0 0-1 0-1l0 0c0-9-4-17-10-23l0 0z" horiz-adv-x="1000" />

<glyph glyph-name="bulb" unicode="&#xe86f;" d="M500 558c0 0-1 0-1 0-115 0-208-93-208-208 0-68 33-129 84-167l0 0v-166c0 0 0-1 0-1 0-46 37-83 83-83 0 0 0 0 0 0h84c0 0 0 0 0 0 46 0 83 37 83 83 0 0 0 1 0 1l0 0v166c51 38 84 99 84 167 0 115-93 208-208 208 0 0-1 0-1 0h0z m0 42c23 0 42 19 42 42v0 83c0 23-19 42-42 42s-42-19-42-42v0-83c0-23 19-42 42-42v0z m375-208h-83c-23 0-42-19-42-42s19-42 42-42v0h83c23 0 42 19 42 42s-19 42-42 42v0z m-667 0h-83c-23 0-42-19-42-42s19-42 42-42v0h83c23 0 42 19 42 42s-19 42-42 42v0z m111 191l-60 59c-8 7-18 11-29 11-23 0-42-19-42-42 0-12 5-23 13-31l0 0 60-57c8-7 18-12 30-12 0 0 1 0 1 0l0 0c12 0 23 5 30 13l0 0c7 7 11 17 11 28 0 12-5 23-14 31l0 0z m481 57c-8 8-18 12-29 12s-22-4-30-12l0 0-60-57c-7-8-12-18-12-29s5-22 12-30l0 0c8-8 18-13 30-13h0c11 0 22 5 29 12l0 0 60 57c8 8 13 18 13 30s-5 22-13 30l0 0z" horiz-adv-x="1000" />

<glyph glyph-name="bulb-outline" unicode="&#xe870;" d="M500 558c0 0-1 0-1 0-115 0-208-93-208-208 0-68 33-129 84-167l0 0v-166c0 0 0-1 0-1 0-46 37-83 83-83 0 0 0 0 0 0h84c0 0 0 0 0 0 46 0 83 37 83 83 0 0 0 1 0 1l0 0v166c51 38 84 99 84 167 0 115-93 208-208 208 0 0-1 0-1 0h0z m63-316c-12-7-21-21-21-36v-189h-84v189c0 0 0 0 0 0 0 15-8 29-20 36l0 0c-38 22-63 62-63 108v0c0 69 56 125 125 125s125-56 125-125v0c0 0 0 0 0 0 0-46-25-86-61-108l-1 0z m-63 358c23 0 42 19 42 42v0 83c0 23-19 42-42 42s-42-19-42-42v0-83c0-23 19-42 42-42v0z m375-208h-83c-23 0-42-19-42-42s19-42 42-42v0h83c23 0 42 19 42 42s-19 42-42 42v0z m-667 0h-83c-23 0-42-19-42-42s19-42 42-42v0h83c23 0 42 19 42 42s-19 42-42 42v0z m111 191l-60 59c-8 7-18 11-29 11-23 0-42-19-42-42 0-12 5-23 13-31l0 0 60-57c8-7 18-12 30-12 0 0 1 0 1 0l0 0c12 0 23 5 30 13l0 0c7 7 11 17 11 28 0 12-5 23-14 31l0 0z m481 57c-8 8-18 12-29 12s-22-4-30-12l0 0-60-57c-7-8-12-18-12-29s5-22 12-30l0 0c8-8 18-13 30-13h0c11 0 22 5 29 12l0 0 60 57c8 8 13 18 13 30s-5 22-13 30l0 0z" horiz-adv-x="1000" />

<glyph glyph-name="calendar" unicode="&#xe871;" d="M750 683h-42v42c-3 20-21 36-41 36s-39-16-42-36l0 0v-42h-250v42c-3 20-21 36-41 36s-39-16-42-36l0 0v-42h-42c-69 0-125-56-125-125v0-500c0-69 56-125 125-125v0h500c69 0 125 56 125 125v0 500c0 69-56 125-125 125v0z m-417-541c-23 0-42 19-42 42s19 42 42 42 42-19 42-42c0 0 0-1 0-1l0 0c-1-23-19-41-42-41 0 0 0 0 0 0h0z m334 0h-167c-20 3-35 21-35 42s15 38 35 41l0 0h167c20-3 36-21 36-41s-16-39-36-42l0 0z m125 250h-584v166c0 23 19 42 42 42v0h42v-42c3-20 21-35 42-35s38 15 41 35l0 0v42h250v-42c3-20 21-35 42-35s38 15 41 35l0 0v42h42c23 0 42-19 42-42v0z" horiz-adv-x="1000" />

<glyph glyph-name="calendar-outline" unicode="&#xe872;" d="M750 683h-42v42c-3 20-21 36-41 36s-39-16-42-36l0 0v-42h-250v42c-3 20-21 36-41 36s-39-16-42-36l0 0v-42h-42c-69 0-125-56-125-125v0-500c0-69 56-125 125-125v0h500c69 0 125 56 125 125v0 500c0 69-56 125-125 125v0z m-500-83h42v-42c3-20 21-35 42-35s38 15 41 35l0 0v42h250v-42c3-20 21-35 42-35s38 15 41 35l0 0v42h42c23 0 42-19 42-42v0-166h-584v166c0 23 19 42 42 42v0z m500-583h-500c0 0 0 0 0 0-23 0-41 18-42 41l0 0v250h584v-250c-1-23-19-41-42-41 0 0 0 0 0 0h0z m-83 208h-167c-20-3-35-21-35-41s15-39 35-42l0 0h167c20 3 36 21 36 42s-16 38-36 41l0 0z" horiz-adv-x="1000" />

<glyph glyph-name="camera" unicode="&#xe873;" d="M792 558h-125v63c0 57-47 104-104 104v0h-125c0 0-1 0-1 0-57 0-104-47-104-104 0 0 0 0 0 0v0-63h-125c-69 0-125-56-125-125v0-333c0-69 56-125 125-125v0h584c69 0 125 56 125 125v0 333c0 69-56 125-125 125v0z m-375 63c0 12 9 21 21 21v0h125c11-1 20-10 20-21 0 0 0 0 0 0v0-63h-166z m83-500c-81 0-146 65-146 146s65 146 146 146c81 0 146-65 146-146v0c0-81-65-146-146-146v0z" horiz-adv-x="1000" />

<glyph glyph-name="camera-outline" unicode="&#xe874;" d="M792 558h-125v63c0 57-47 104-104 104v0h-125c0 0-1 0-1 0-57 0-104-47-104-104 0 0 0 0 0 0v0-63h-125c-69 0-125-56-125-125v0-333c0-69 56-125 125-125v0h584c69 0 125 56 125 125v0 333c0 69-56 125-125 125v0z m-375 63c0 12 9 21 21 21v0h125c11-1 20-10 20-21 0 0 0 0 0 0v0-63h-166z m416-521c0 0 0 0 0 0 0-23-18-41-41-42l0 0h-584c-23 1-41 19-41 42 0 0 0 0 0 0v0 333c0 0 0 0 0 0 0 23 18 41 41 42l0 0h584c23-1 41-19 41-42 0 0 0 0 0 0v0z m-333 313c-81 0-146-65-146-146s65-146 146-146c81 0 146 65 146 146v0c0 81-65 146-146 146v0z m0-209c-35 0-63 28-63 63s28 63 63 63c35 0 63-28 63-63v0c0-35-28-63-63-63v0z" horiz-adv-x="1000" />

<glyph glyph-name="campaign" unicode="&#xe875;" d="M821 775l-58 0c-50 0-92-42-92-92l0-45-325-121c-13 8-25 12-42 12l-125 0c-46 0-87-37-87-87l0-125c0-46 37-88 83-88l21 0 0-246c0-25 21-41 42-41l120 0c25 0 42 20 42 41 0 25-21 42-42 42l-79 0 0 204 21 0c17 0 29 4 42 13l321-121 0-46c0-50 41-92 91-92l59 0c50 0 91 42 91 92l13 608c0 50-42 92-96 92z" horiz-adv-x="1000" />

<glyph glyph-name="campaign-outline" unicode="&#xe876;" d="M821 775l-58 0c-50 0-92-42-92-92l0-45-325-121c-13 8-25 12-42 12l-125 0c-46 0-87-37-87-87l0-125c0-46 37-88 83-88l21 0 0-246c0-25 21-41 42-41l120 0c25 0 42 20 42 41 0 25-21 42-42 42l-79 0 0 204 21 0c17 0 29 4 42 13l321-121 0-46c0-50 41-92 91-92l59 0c50 0 91 42 91 92l13 608c0 50-42 92-96 92z m-513-458l-125 0 0 125 125 0 0-125z m363-104l-275 104 0 125 275 104 0-333z m158-134c0-4-4-8-8-8l-58 0c-5 0-9 4-9 8l0 604c0 5 4 9 9 9l58 0c4 0 8-4 8-9l0-604z" horiz-adv-x="1000" />

<glyph glyph-name="car" unicode="&#xe877;" d="M900 383l-192 154v105c0 1 0 2 0 3 0 43-33 77-75 80l0 0h-475c-42-3-75-37-75-80 0-1 0-2 0-3l0 0v-417c0 0 0-1 0-2 0-34 20-63 50-76l0 0c-6-14-9-30-9-46 0-69 56-125 125-125s125 56 125 125c0 14-2 29-7 42l0-1h265c-5-13-7-27-7-43 0-69 56-125 125-125s125 56 125 125c0 16-3 30-8 44l0-1h8c0 0 0 0 0 0 23 0 41 18 42 41l0 0v167c0 13-7 25-17 33l0 0z m-67-53v-105h-125v205z m-541-230c0-23-19-42-42-42s-42 19-42 42c0 23 19 42 42 42v0c23 0 42-19 42-42v0z m500 0c0-23-19-42-42-42s-42 19-42 42c0 23 19 42 42 42v0c23 0 42-19 42-42v0z" horiz-adv-x="1000" />

<glyph glyph-name="car-outline" unicode="&#xe878;" d="M900 383l-192 154v105c0 1 0 2 0 3 0 43-33 77-75 80l0 0h-475c-42-3-75-37-75-80 0-1 0-2 0-3l0 0v-417c0 0 0-1 0-2 0-34 20-63 50-76l0 0c-6-14-9-30-9-46 0-69 56-125 125-125s125 56 125 125c0 14-2 29-7 42l0-1h265c-5-13-7-27-7-43 0-69 56-125 125-125s125 56 125 125c0 16-3 30-8 44l0-1h8c0 0 0 0 0 0 23 0 41 18 42 41l0 0v167c0 13-7 25-17 33l0 0z m-67-53v-105h-125v205z m-541-230c0-23-19-42-42-42s-42 19-42 42c0 23 19 42 42 42v0c23 0 42-19 42-42v0z m208 125h-333v417h458v-417z m292-125c0-23-19-42-42-42s-42 19-42 42c0 23 19 42 42 42v0c23 0 42-19 42-42v0z" horiz-adv-x="1000" />

<glyph glyph-name="cast" unicode="&#xe879;" d="M767 725h-534c-60-3-108-52-108-113 0-1 0-2 0-3l0 0v-51c3-20 21-36 42-36s38 16 41 36l0 0v51c0 1 0 2 0 3 0 15 11 28 25 30l0 0h534c14-2 25-15 25-30 0-1 0-2 0-3l0 0v-518c0-1 0-2 0-3 0-15-11-28-25-30l0 0h-59c-20-3-36-21-36-41s16-39 36-42l0 0h59c60 3 108 52 108 113 0 1 0 2 0 3l0 0v518c0 1 0 2 0 3 0 61-48 110-108 113l0 0z m-606-458c-21-3-37-20-37-42 0-2 1-5 1-7l0 0c3-20 21-35 42-35 2 0 4 0 6 0l0 0c4 1 9 1 14 1 29 0 55-12 74-31l0 0c19-19 31-45 31-74 0-16-4-31-10-45l0 1c-2-5-4-11-4-17 0-17 10-31 24-38l0 0c5-2 12-4 18-4h0c0 0 0 0 0 0 17 0 31 10 38 24l0 0c12 24 18 52 18 81 0 104-84 188-188 188-9 0-19-1-28-2l1 0z m0 163c-19-4-34-21-34-41 0-23 19-42 42-42 2 0 3 0 4 0l0 0c10 2 22 2 34 2 70 0 133-28 178-74l0 0c45-45 73-108 73-177 0-25-4-49-10-72l0 2c-1-4-2-8-2-12 0-20 13-36 31-41l0 0c2 0 4 0 6 0s3 0 5 0l0 0c1 0 1 0 2 0 19 0 35 12 40 30l0 0c9 29 14 62 14 96 0 183-149 333-333 333-17 0-34-2-50-4l2 0z" horiz-adv-x="1000" />

<glyph glyph-name="cast-outline" unicode="&#xe87a;" d="M767 725h-534c-60-3-108-52-108-113 0-1 0-2 0-3l0 0v-51c3-20 21-36 42-36s38 16 41 36l0 0v51c0 1 0 2 0 3 0 15 11 28 25 30l0 0h534c14-2 25-15 25-30 0-1 0-2 0-3l0 0v-518c0-1 0-2 0-3 0-15-11-28-25-30l0 0h-59c-20-3-36-21-36-41s16-39 36-42l0 0h59c60 3 108 52 108 113 0 1 0 2 0 3l0 0v518c0 1 0 2 0 3 0 61-48 110-108 113l0 0z m-606-458c-21-3-37-20-37-42 0-2 1-5 1-7l0 0c3-20 21-35 42-35 2 0 4 0 6 0l0 0c4 1 9 1 14 1 29 0 55-12 74-31l0 0c19-19 31-45 31-74 0-16-4-31-10-45l0 1c-2-5-4-11-4-17 0-17 10-31 24-38l0 0c5-2 12-4 18-4h0c0 0 0 0 0 0 17 0 31 10 38 24l0 0c12 24 18 52 18 81 0 104-84 188-188 188-9 0-19-1-28-2l1 0z m0 163c-19-4-34-21-34-41 0-23 19-42 42-42 2 0 3 0 4 0l0 0c10 2 22 2 34 2 70 0 133-28 178-74l0 0c45-45 73-108 73-177 0-25-4-49-10-72l0 2c-1-4-2-8-2-12 0-20 13-36 31-41l0 0c2 0 4 0 6 0s3 0 5 0l0 0c1 0 1 0 2 0 19 0 35 12 40 30l0 0c9 29 14 62 14 96 0 183-149 333-333 333-17 0-34-2-50-4l2 0z" horiz-adv-x="1000" />

<glyph glyph-name="charging" unicode="&#xe87b;" d="M470 308h-178c-15 0-29 9-36 21l0 0c-3 6-6 13-6 21s3 15 6 21l0 0 131 229h-213c-51-3-91-45-91-96 0-2 0-3 0-5l0 0v-298c0-1 0-3 0-5 0-51 40-93 91-96l0 0h177z m190 292h-177l-120-208h179c15 0 29-8 36-21l0 0c4-6 6-13 6-21s-2-15-6-21l0 0-131-229h213c50 3 90 45 90 96 0 2 0 3 0 5l0 0v298c0 2 0 3 0 5 0 51-40 93-90 96l0 0z m215-125c-23 0-42-19-42-42v0-166c0-23 19-42 42-42s42 19 42 42v0 166c0 23-19 42-42 42v0z" horiz-adv-x="1000" />

<glyph glyph-name="charging-outline" unicode="&#xe87c;" d="M875 475c-23 0-42-19-42-42v0-166c0-23 19-42 42-42s42 19 42 42v0 166c0 23-19 42-42 42v0z m-215 125h-130l-47-83h176c5-4 8-10 8-16 0-1 0-2 0-2l0 0v-298c0-1 0-1 0-2 0-6-3-12-7-16l0 0h-118l-48-83h166c50 3 90 45 90 96 0 2 0 3 0 5l0 0v298c0 2 0 3 0 5 0 51-40 93-90 96l0 0z m-493-399v298c0 1 0 1 0 2 0 6 3 12 7 16l0 0h118l47 83h-167c-50-4-89-45-89-96 0-2 0-3 0-5l0 0v-298c0-1 0-3 0-5 0-51 40-93 91-96l0 0h129l47 83h-176c-4 4-7 10-7 16 0 1 0 1 0 2l0 0z m208-184c-23 1-41 19-41 42 0 7 2 14 5 20l0 0 131 229h-178c-15 0-29 9-36 21l0 0c-3 6-6 13-6 21s3 15 6 21l0 0 167 292c8 10 20 17 33 17 24 0 42-19 42-42 0-6-1-12-3-17l0 0-132-229h179c15 0 29-8 36-21l0 0c4-6 6-13 6-21s-2-15-6-21l0 0-167-291c-7-12-21-21-36-21h0z" horiz-adv-x="1000" />

<glyph glyph-name="checkmark" unicode="&#xe87d;" d="M411 100c0 0 0 0-1 0-12 0-22 5-30 13l0 0-202 216c-9 8-15 19-15 32 0 23 19 42 42 42 14 0 26-7 34-17l0 0 171-183 351 383c8 11 20 17 34 17 23 0 42-19 42-42 0-12-5-23-14-31l0 0-381-416c-8-8-19-14-31-14h0z" horiz-adv-x="1000" />

<glyph glyph-name="checkmark-circle" unicode="&#xe87e;" d="M405 380c-8 8-18 12-30 12-23 0-42-19-42-42 0-12 4-22 12-30l125-125c8-7 18-12 29-12 1 0 1 0 1 0h0c12 1 23 6 30 15l0 0 292 333c5 7 8 15 8 25 0 23-19 42-42 42-11 0-21-5-29-12l0 0-259-300z m470 12c-23 0-42-19-42-42v0c0-184-149-333-333-333v0c0 0 0 0 0 0-184 0-333 149-333 333 0 92 37 175 97 235l0 0c60 61 143 98 235 98 0 0 1 0 1 0h0c28 0 55-3 82-9l-3 0c4-2 10-3 15-3 23 0 42 19 42 42 0 22-16 39-37 42l0 0c-30 7-64 12-99 12l0 0c-229-1-414-188-414-417 0-115 46-219 122-295l0 0c75-75 178-122 292-122h0c230 0 417 187 417 417v0c0 23-19 42-42 42v0z" horiz-adv-x="1000" />

<glyph glyph-name="checkmark-circle-2" unicode="&#xe87f;" d="M500 767c-230 0-417-187-417-417s187-417 417-417c230 0 417 187 417 417v0c0 230-187 417-417 417v0z m179-317l-190-250c-8-10-19-17-33-17l0 0c0 0 0 0 0 0-13 0-25 6-33 16l0 0-102 130c-4 6-6 14-6 22 0 23 19 42 42 42 12 0 22-5 30-13l0 0 68-87 158 209c7 12 21 20 36 20 23 0 42-18 42-42 0-11-5-21-12-29l0 0z" horiz-adv-x="1000" />

<glyph glyph-name="checkmark-circle-2-outline" unicode="&#xe880;" d="M500 767c-230 0-417-187-417-417s187-417 417-417c230 0 417 187 417 417v0c0 230-187 417-417 417v0z m0-750c-184 0-333 149-333 333s149 333 333 333c184 0 333-149 333-333v0c0-184-149-333-333-333v0z m113 483l-158-208-68 88c-8 8-18 13-30 13-23 0-42-19-42-42 0-8 2-16 6-22l0 0 102-130c8-9 19-16 32-16l0 0c14 0 25 7 33 17l0 0 191 250c7 7 11 17 11 28 0 24-19 42-42 42-15 0-28-8-36-20l0 0z" horiz-adv-x="1000" />

<glyph glyph-name="checkmark-circle-outline" unicode="&#xe881;" d="M405 380c-8 8-18 12-30 12-23 0-42-19-42-42 0-12 4-22 12-30l125-125c8-7 18-12 29-12 1 0 1 0 1 0h0c12 1 23 6 30 15l0 0 292 333c5 7 8 15 8 25 0 23-19 42-42 42-11 0-21-5-29-12l0 0-259-300z m470 12c-23 0-42-19-42-42v0c0-184-149-333-333-333v0c0 0 0 0 0 0-184 0-333 149-333 333 0 92 37 175 97 235l0 0c60 61 143 98 235 98 0 0 1 0 1 0h0c28 0 55-3 82-9l-3 0c4-2 10-3 15-3 23 0 42 19 42 42 0 22-16 39-37 42l0 0c-30 7-64 12-99 12l0 0c-229-1-414-188-414-417 0-115 46-219 122-295l0 0c75-75 178-122 292-122h0c230 0 417 187 417 417v0c0 23-19 42-42 42v0z" horiz-adv-x="1000" />

<glyph glyph-name="checkmark-outline" unicode="&#xe882;" d="M411 100c0 0 0 0-1 0-12 0-22 5-30 13l0 0-202 216c-9 8-15 19-15 32 0 23 19 42 42 42 14 0 26-7 34-17l0 0 171-183 351 383c8 11 20 17 34 17 23 0 42-19 42-42 0-12-5-23-14-31l0 0-381-416c-8-8-19-14-31-14h0z" horiz-adv-x="1000" />

<glyph glyph-name="checkmark-square" unicode="&#xe883;" d="M833 357c-23-1-41-19-41-42 0 0 0 0 0 0v0-232c0-14-11-25-25-25v0h-534c-14 0-25 11-25 25v0 534c0 14 11 25 25 25v0h399c2 0 4 0 7 0 23 0 42 18 42 42s-19 42-42 42c-3 0-5-1-7-1l0 0h-399c-59-1-107-49-108-108v-534c1-59 49-107 108-108h534c59 1 108 49 108 108v232c0 23-19 42-42 42v0z m-386 35c-7 6-16 10-27 10-23 0-42-19-42-42 0-10 4-19 9-26l0 0 92-97c8-8 18-13 30-13h0c12 0 23 5 30 13l0 0 283 291c8 8 12 18 12 30 0 23-19 42-42 42-12 0-22-5-30-13l0 0-252-261z" horiz-adv-x="1000" />

<glyph glyph-name="checkmark-square-2" unicode="&#xe884;" d="M750 725h-500c-69 0-125-56-125-125v0-500c0-69 56-125 125-125v0h500c69 0 125 56 125 125v0 500c0 69-56 125-125 125v0z m-71-275l-190-250c-8-10-19-17-33-17l0 0c0 0 0 0 0 0-13 0-25 6-33 16l0 0-102 130c-4 6-6 14-6 22 0 23 19 42 42 42 12 0 22-5 30-13l0 0 68-87 158 209c7 12 21 20 36 20 23 0 42-18 42-42 0-11-5-21-12-29l0 0z" horiz-adv-x="1000" />

<glyph glyph-name="checkmark-square-2-outline" unicode="&#xe885;" d="M750 725h-500c-69 0-125-56-125-125v0-500c0-69 56-125 125-125v0h500c69 0 125 56 125 125v0 500c0 69-56 125-125 125v0z m42-625c0-23-19-42-42-42v0h-500c-23 0-42 19-42 42v0 500c0 23 19 42 42 42v0h500c23 0 42-19 42-42v0z m-179 400l-158-208-68 88c-8 8-18 13-30 13-23 0-42-19-42-42 0-8 2-16 6-22l0 0 102-130c8-9 19-16 32-16l0 0c14 0 25 7 33 17l0 0 191 250c7 7 11 17 11 28 0 24-19 42-42 42-15 0-28-8-36-20l0 0z" horiz-adv-x="1000" />

<glyph glyph-name="checkmark-square-outline" unicode="&#xe886;" d="M833 357c-23-1-41-19-41-42 0 0 0 0 0 0v0-232c0-14-11-25-25-25v0h-534c-14 0-25 11-25 25v0 534c0 14 11 25 25 25v0h399c2 0 4 0 7 0 23 0 42 18 42 42s-19 42-42 42c-3 0-5-1-7-1l0 0h-399c-59-1-107-49-108-108v-534c1-59 49-107 108-108h534c59 1 108 49 108 108v232c0 23-19 42-42 42v0z m-386 35c-7 6-16 10-27 10-23 0-42-19-42-42 0-10 4-19 9-26l0 0 92-97c8-8 18-13 30-13h0c12 0 23 5 30 13l0 0 283 291c8 8 12 18 12 30 0 23-19 42-42 42-12 0-22-5-30-13l0 0-252-261z" horiz-adv-x="1000" />

<glyph glyph-name="chevron-down" unicode="&#xe887;" d="M500 204c0 0 0 0-1 0-11 0-21 5-29 12l0 0-166 167c-10 8-16 20-16 33 0 23 19 42 42 42 13 0 25-6 33-16l0 0 137-138 138 133c8 10 20 17 34 17 23 0 42-19 42-42 0-15-8-27-19-35l0 0-167-161c-7-7-17-12-28-12l0 0z" horiz-adv-x="1000" />

<glyph glyph-name="chevron-down-outline" unicode="&#xe888;" d="M500 204c0 0 0 0-1 0-11 0-21 5-29 12l0 0-166 167c-10 8-16 20-16 33 0 23 19 42 42 42 13 0 25-6 33-16l0 0 137-138 138 133c8 10 20 17 34 17 23 0 42-19 42-42 0-15-8-27-19-35l0 0-167-161c-7-7-17-12-28-12l0 0z" horiz-adv-x="1000" />

<glyph glyph-name="chevron-left" unicode="&#xe889;" d="M557 142c-12 0-22 5-30 13l0 0-161 166c-7 8-12 18-12 30s5 21 12 29l0 0 167 166c8 10 20 16 33 16 23 0 42-19 42-42 0-13-6-25-16-33l0 0-138-137 133-137c8-8 12-18 12-29s-4-22-12-30l0 0c-8-7-18-12-29-12-1 0-1 0-1 0h0z" horiz-adv-x="1000" />

<glyph glyph-name="chevron-left-outline" unicode="&#xe88a;" d="M557 142c-12 0-22 5-30 13l0 0-161 166c-7 8-12 18-12 30s5 21 12 29l0 0 167 166c8 10 20 16 33 16 23 0 42-19 42-42 0-13-6-25-16-33l0 0-138-137 133-137c8-8 12-18 12-29s-4-22-12-30l0 0c-8-7-18-12-29-12-1 0-1 0-1 0h0z" horiz-adv-x="1000" />

<glyph glyph-name="chevron-right" unicode="&#xe88b;" d="M438 142c0 0 0 0-1 0-11 0-21 5-29 12l0 0c-7 8-12 18-12 30s5 21 12 29l0 0 138 137-133 138c-7 8-12 18-12 30s5 21 12 29l0 0c8 8 18 13 30 13s22-5 30-13l0 0 160-167c7-7 12-18 12-29s-5-21-12-29l0 0-166-167c-7-8-18-13-29-13l0 0z" horiz-adv-x="1000" />

<glyph glyph-name="chevron-right-outline" unicode="&#xe88c;" d="M438 142c0 0 0 0-1 0-11 0-21 5-29 12l0 0c-7 8-12 18-12 30s5 21 12 29l0 0 138 137-133 138c-7 8-12 18-12 30s5 21 12 29l0 0c8 8 18 13 30 13s22-5 30-13l0 0 160-167c7-7 12-18 12-29s-5-21-12-29l0 0-166-167c-7-8-18-13-29-13l0 0z" horiz-adv-x="1000" />

<glyph glyph-name="chevron-up" unicode="&#xe88d;" d="M667 246c0 0 0 0-1 0-11 0-21 5-29 12l0 0-137 138-137-133c-8-7-18-12-29-12s-22 5-30 12l0 0c-8 8-13 18-13 30s5 22 13 30l0 0 166 160c8 8 18 12 30 12s21-4 29-12l166-166c8-8 12-18 12-29s-4-22-12-30l0 0c-7-7-17-12-28-12l0 0z" horiz-adv-x="1000" />

<glyph glyph-name="chevron-up-outline" unicode="&#xe88e;" d="M667 246c0 0 0 0-1 0-11 0-21 5-29 12l0 0-137 138-137-133c-8-7-18-12-29-12s-22 5-30 12l0 0c-8 8-13 18-13 30s5 22 13 30l0 0 166 160c8 8 18 12 30 12s21-4 29-12l166-166c8-8 12-18 12-29s-4-22-12-30l0 0c-7-7-17-12-28-12l0 0z" horiz-adv-x="1000" />

<glyph glyph-name="chrome" unicode="&#xe88f;" d="M300 396l-117 204c75 96 192 158 325 158 155 0 288-83 359-204h-342c-4 0-12 0-17 0-100 0-183-66-208-158z m358 96h238c17-46 29-100 29-154 0-230-183-413-412-417l170 296c25 33 38 75 38 121 0 62-25 116-63 154z m-300-150c0 83 67 150 150 150s150-67 150-150c0-84-66-150-150-150-83-4-150 66-150 150z m209-209l-121-208c-200 29-354 204-354 413 0 75 21 145 54 204l171-296c33-71 108-121 191-121 21 4 38 4 59 8z" horiz-adv-x="1000" />

<glyph glyph-name="chrome-outline" unicode="&#xe890;" d="M883 517c0 4-4 4-4 8-66 142-212 242-379 242-133 0-254-63-333-163 0-4 0-4 0-4s-4-4-4-8c-50-67-80-150-80-242 0-212 159-388 363-413 0 0 0 0 0 0 4 0 8 0 8 0v0c13 0 29 0 42 0 229 0 417 188 417 417 4 54-9 109-30 163z m-383 166c113 0 213-54 271-141h-271c-75 0-142-46-171-109l-79 134c58 71 150 116 250 116z m108-333c0-21-4-37-12-50 0 0 0 0 0-4l-4-8c-21-30-54-46-92-46-42 0-75 21-92 54 0 0 0 0 0 0l-4 4c-8 17-12 33-12 50 0 58 50 108 108 108s108-50 108-108z m-170-325v0c-155 29-271 163-271 325 0 50 12 96 33 142l133-234v-4c0 0 0 0 0 0 34-58 96-96 167-96 4 0 8 0 17 0l-79-133z m91-8l138 237c0 0 0 0 0 0 16 29 25 59 25 96 0 42-13 79-34 108h159c12-33 16-70 16-108 0-175-133-317-304-333z" horiz-adv-x="1000" />

<glyph glyph-name="clipboard" unicode="&#xe891;" d="M750 683v-125c0-46-37-83-83-83v0h-334c-46 0-83 37-83 83v0 125c-69 0-125-56-125-125v0-500c0-69 56-125 125-125v0h500c69 0 125 56 125 125v0 500c0 69-56 125-125 125v0z" horiz-adv-x="1000" />

<glyph glyph-name="clipboard-outline" unicode="&#xe892;" d="M750 642v41c0 0 0 1 0 1 0 46-37 83-83 83 0 0 0 0 0 0h-334c0 0 0 0 0 0-46 0-83-37-83-83 0 0 0-1 0-1l0 0v-41c-69 0-125-56-125-125v0-459c0-69 56-125 125-125v0h500c69 0 125 56 125 125v0 459c0 69-56 125-125 125v0z m-417 41h334v-166h-334v166z m459-625c-1-23-19-41-42-41 0 0 0 0 0 0h-500c0 0 0 0 0 0-23 0-41 18-42 41l0 0v459c1 23 19 41 42 41 0 0 0 0 0 0h0v-41c0 0 0-1 0-1 0-46 37-83 83-83 0 0 0 0 0 0h334c0 0 0 0 0 0 46 0 83 37 83 83 0 0 0 1 0 1l0 0v41c0 0 0 0 0 0 23 0 41-18 42-41l0 0z" horiz-adv-x="1000" />

<glyph glyph-name="clock" unicode="&#xe893;" d="M500 767c-230 0-417-187-417-417s187-417 417-417c230 0 417 187 417 417v0c0 230-187 417-417 417v0z m167-459h-167c-23 0-42 19-42 42v0 167c0 23 19 42 42 42s42-19 42-42v0-125h125c23 0 42-19 42-42s-19-42-42-42v0z" horiz-adv-x="1000" />

<glyph glyph-name="clock-outline" unicode="&#xe894;" d="M500 767c-230 0-417-187-417-417s187-417 417-417c230 0 417 187 417 417v0c0 230-187 417-417 417v0z m0-750c-184 0-333 149-333 333s149 333 333 333c184 0 333-149 333-333v0c0-184-149-333-333-333v0z m167 375h-125v125c0 23-19 42-42 42s-42-19-42-42v0-167c0-23 19-42 42-42v0h167c23 0 42 19 42 42s-19 42-42 42v0z" horiz-adv-x="1000" />

<glyph glyph-name="close" unicode="&#xe895;" d="M559 350l179 179c10 8 16 20 16 33 0 23-19 42-42 42-13 0-25-6-33-16l0 0-179-179-179 179c-7 6-16 9-26 9-23 0-42-19-42-42 0-10 3-19 9-26l0 0 179-179-179-179c-7-8-12-18-12-29s5-22 12-30l0 0c8-7 18-12 30-12s21 5 29 12l179 179 179-179c8-7 18-12 30-12s21 5 29 12l0 0c8 8 12 18 12 30s-4 21-12 29l0 0z" horiz-adv-x="1000" />

<glyph glyph-name="close-circle" unicode="&#xe896;" d="M500 767c-230 0-417-187-417-417s187-417 417-417c230 0 417 187 417 417v0c0 230-187 417-417 417v0z m113-471c8-8 12-18 12-29s-4-22-12-30l0 0c-8-7-18-12-29-12s-22 5-30 12l-54 54-54-54c-8-7-18-12-29-12s-22 5-30 12l0 0c-7 8-12 18-12 30s5 21 12 29l54 54-54 54c-6 7-9 16-9 26 0 23 19 42 42 42 10 0 19-3 26-9l0 0 54-54 54 54c7 6 16 9 26 9 23 0 42-19 42-42 0-10-3-19-9-26l0 0-54-54z" horiz-adv-x="1000" />

<glyph glyph-name="close-circle-outline" unicode="&#xe897;" d="M500 767c-230 0-417-187-417-417s187-417 417-417c230 0 417 187 417 417v0c0 230-187 417-417 417v0z m0-750c-184 0-333 149-333 333s149 333 333 333c184 0 333-149 333-333v0c0-184-149-333-333-333v0z m113 446c-8 8-18 12-29 12s-22-4-30-12l-54-54-54 54c-7 6-16 9-26 9-23 0-42-19-42-42 0-10 3-19 9-26l0 0 54-54-54-54c-7-8-12-18-12-29s5-22 12-30l0 0c8-7 18-12 30-12s21 5 29 12l54 54 54-54c8-7 18-12 30-12s21 5 29 12l0 0c8 8 12 18 12 30s-4 21-12 29l-54 54 54 54c8 8 12 18 12 30s-4 21-12 29l0 0z" horiz-adv-x="1000" />

<glyph glyph-name="close-outline" unicode="&#xe898;" d="M559 350l179 179c10 8 16 20 16 33 0 23-19 42-42 42-13 0-25-6-33-16l0 0-179-179-179 179c-7 6-16 9-26 9-23 0-42-19-42-42 0-10 3-19 9-26l0 0 179-179-179-179c-7-8-12-18-12-29s5-22 12-30l0 0c8-7 18-12 30-12s21 5 29 12l179 179 179-179c8-7 18-12 30-12s21 5 29 12l0 0c8 8 12 18 12 30s-4 21-12 29l0 0z" horiz-adv-x="1000" />

<glyph glyph-name="close-square" unicode="&#xe899;" d="M750 725h-500c-69 0-125-56-125-125v0-500c0-69 56-125 125-125v0h500c69 0 125 56 125 125v0 500c0 69-56 125-125 125v0z m-137-429c8-8 12-18 12-29s-4-22-12-30l0 0c-8-7-18-12-29-12s-22 5-30 12l-54 54-54-54c-8-7-18-12-29-12s-22 5-30 12l0 0c-7 8-12 18-12 30s5 21 12 29l54 54-54 54c-6 7-9 16-9 26 0 23 19 42 42 42 10 0 19-3 26-9l0 0 54-54 54 54c7 6 16 9 26 9 23 0 42-19 42-42 0-10-3-19-9-26l0 0-54-54z" horiz-adv-x="1000" />

<glyph glyph-name="close-square-outline" unicode="&#xe89a;" d="M750 725h-500c-69 0-125-56-125-125v0-500c0-69 56-125 125-125v0h500c69 0 125 56 125 125v0 500c0 69-56 125-125 125v0z m42-625c0-23-19-42-42-42v0h-500c-23 0-42 19-42 42v0 500c0 23 19 42 42 42v0h500c23 0 42-19 42-42v0z m-179 363c-8 8-18 12-29 12s-22-4-30-12l-54-54-54 54c-7 6-16 9-26 9-23 0-42-19-42-42 0-10 3-19 9-26l0 0 54-54-54-54c-7-8-12-18-12-29s5-22 12-30l0 0c8-7 18-12 30-12s21 5 29 12l54 54 54-54c8-7 18-12 30-12s21 5 29 12l0 0c8 8 12 18 12 30s-4 21-12 29l-54 54 54 54c8 8 12 18 12 30s-4 21-12 29l0 0z" horiz-adv-x="1000" />

<glyph glyph-name="cloud-download" unicode="&#xe89b;" d="M913 392c0 4-3 9-4 13-2 9-5 17-8 25l0-1c-2 5-5 10-7 16s-6 12-10 18-9 9-9 12-8 10-13 15-9 9-13 13l-16 14-15 10c-5 3-11 6-17 9l-1 0-16 8c-6 2-13 4-20 6l-1 0c-5 2-10 3-16 4l-1 0h-8c-34 101-127 173-238 173-108 0-201-70-235-167l-1-2h-8c-6-1-12-2-18-3l1 0c-8-2-15-5-22-7l1 0-16-7c-7-3-13-7-19-10l1 0-15-14-16-13c-4-4-9-8-13-13s-9-10-13-15-7-10-11-15-6-12-10-18-5-11-7-16c-3-7-6-15-8-23l0-1c0-4-3-9-3-13-3-12-4-26-5-40l0 0c0-14 2-27 4-39l0 1c0-4 2-8 3-12 3-10 5-18 9-26l-1 2 5-12c4-9 8-17 13-25l-1 1 6-9c1-1 1-2 2-3l0 0 2-3c38-51 99-83 166-83 1 0 1 0 1 0h0c0 23 9 43 24 58l0 0c15 15 36 25 59 25h0c1 0 1 0 2 0 15 0 28-4 40-11l0 0v136c0 46 37 83 83 83s83-37 83-83v0-140c12 7 26 11 41 11 1 0 1 0 1 0h0c24 0 45-10 60-26l0 0c13-14 22-32 23-53l0 0c0 0 1 0 1 0 68 0 128 32 166 82l0 1 2 2c1 1 1 2 2 3l0 0 6 10c4 6 9 14 13 22l0 1 5 12c2 6 5 14 7 22l0 2c0 4 2 8 3 12 2 12 4 25 4 39l0 0c0 0 0 0 0 0 0 15-1 30-4 43l0-1z m-317-224l-54-53v235c0 23-19 42-42 42s-42-19-42-42v0-233l-53 54c-8 8-18 13-30 13-23 0-42-19-42-42 0-12 5-22 12-30l125-125c8-7 18-12 29-12 1 0 1 0 1 0h0c11 0 22 5 29 12l0 0 125 121c10 8 17 20 17 33 0 24-19 42-42 42-14 0-25-6-33-15l0 0z m317 224c0 4-3 9-4 13-2 9-5 17-8 25l0-1c-2 5-5 10-7 16s-6 12-10 18-9 9-9 12-8 10-13 15-9 9-13 13l-16 14-15 10c-5 3-11 6-17 9l-1 0-16 8c-6 2-13 4-20 6l-1 0c-5 2-10 3-16 4l-1 0h-8c-34 101-127 173-238 173-108 0-201-70-235-167l-1-2h-8c-6-1-12-2-18-3l1 0c-8-2-15-5-22-7l1 0-16-7c-7-3-13-7-19-10l1 0-15-14-16-13c-4-4-9-8-13-13s-9-10-13-15-7-10-11-15-6-12-10-18-5-11-7-16c-3-7-6-15-8-23l0-1c0-4-3-9-3-13-3-12-4-26-5-40l0 0c0-14 2-27 4-39l0 1c0-4 2-8 3-12 3-10 5-18 9-26l-1 2 5-12c4-9 8-17 13-25l-1 1 6-9c1-1 1-2 2-3l0 0 2-3c38-51 99-83 166-83 1 0 1 0 1 0h0c0 23 9 43 24 58l0 0c15 15 36 25 59 25h0c1 0 1 0 2 0 15 0 28-4 40-11l0 0v136c0 46 37 83 83 83s83-37 83-83v0-140c12 7 26 11 41 11 1 0 1 0 1 0h0c24 0 45-10 60-26l0 0c13-14 22-32 23-53l0 0c0 0 1 0 1 0 68 0 128 32 166 82l0 1 2 2c1 1 1 2 2 3l0 0 6 10c4 6 9 14 13 22l0 1 5 12c2 6 5 14 7 22l0 2c0 4 2 8 3 12 2 12 4 25 4 39l0 0c0 0 0 0 0 0 0 15-1 30-4 43l0-1z m-317-224l-54-53v235c0 23-19 42-42 42s-42-19-42-42v0-233l-53 54c-8 8-18 13-30 13-23 0-42-19-42-42 0-12 5-22 12-30l125-125c8-7 18-12 29-12 1 0 1 0 1 0h0c11 0 22 5 29 12l0 0 125 121c10 8 17 20 17 33 0 24-19 42-42 42-14 0-25-6-33-15l0 0z" horiz-adv-x="1000" />

<glyph glyph-name="cloud-download-outline" unicode="&#xe89c;" d="M596 168l-54-53v235c0 23-19 42-42 42s-42-19-42-42v0-233l-53 54c-8 8-18 13-30 13-23 0-42-19-42-42 0-12 5-22 12-30l125-125c8-7 18-12 29-12 1 0 1 0 1 0h0c11 0 22 5 29 12l0 0 125 121c10 8 17 20 17 33 0 24-19 42-42 42-14 0-25-6-33-15l0 0z m140 390c-35 98-127 168-236 168s-201-70-235-166l-1-2c-103-14-181-101-181-206 0-53 20-101 52-138l0 0c7-13 21-22 37-22 23 0 42 19 42 42 0 13-6 25-16 33l0 0c-20 22-31 51-31 83 0 69 55 125 125 125 0 0 0 0 0 0h4c0 0 1 0 1 0 20 0 37 14 41 33l0 0c17 75 84 131 163 131s146-56 163-130l0-1c4-19 21-33 41-33 0 0 1 0 1 0l0 0h2c0 0 0 0 1 0 69 0 125-56 125-125 0-32-12-61-32-83l0 0c-6-7-10-17-10-27 0-13 5-24 14-32l0 0c7-6 17-11 27-11l0 0c0 0 0 0 1 0 12 0 23 5 31 14l0 0c34 37 55 86 55 140 0 107-80 194-183 207l-1 0z" horiz-adv-x="1000" />

<glyph glyph-name="cloud-upload" unicode="&#xe89d;" d="M913 350c0 5-3 9-4 14-2 9-5 17-8 25l0-1c-2 5-5 10-7 15s-6 12-10 18-9 9-9 12-8 11-13 16-9 8-13 12l-16 14-15 10c-5 3-11 7-17 10l-1 0-16 7c-6 2-13 4-20 6l-1 0c-5 2-10 3-16 4l-1 0-10 5c-35 98-127 168-236 168s-201-70-235-166l-1-2-8-2c-7-1-12-2-18-4l1 0c-8-2-15-4-22-6l1 0-16-8c-7-3-13-6-19-9l1 0-15-13-16-13c-4-4-9-8-13-12s-9-11-13-16-7-9-11-15-6-12-10-18-5-11-7-16c-3-6-5-14-8-22l0-1c0-5-3-9-3-14-3-12-4-26-5-40l0 0c0-14 2-27 4-39l0 1c0-4 2-7 3-12 3-10 5-18 9-26l-1 2 5-12c4-9 8-17 13-24l-1 1 6-9c1-2 1-3 2-4l0 0 2-3c38-51 99-83 166-83 1 0 1 0 1 0h125v57c-12-7-26-11-41-11-1 0-1 0-1 0h0c-23 0-45 10-60 25l0 0c-15 15-24 35-24 58 0 24 10 45 26 60l0 0 125 121c15 14 35 23 57 23 1 0 1 0 1 0h0c0 0 0 0 1 0 22 0 43-9 58-24l125-125c15-15 25-36 25-59s-10-44-25-59l0 0c-15-15-36-24-58-24-1 0-1 0-1 0h0c0 0-1 0-1 0-15 0-29 4-41 11l0 0v-53h125c0 0 1 0 1 0 67 0 128 32 166 83l0 0 2 2c1 1 1 3 2 4l0 0 6 9c4 6 9 14 12 22l1 1 5 12c2 7 5 15 7 23l0 2c0 4 2 7 3 12 2 11 4 24 4 38l0 0c0 0 0 0 0 0 0 15-1 30-4 43l0-1z m-383 30c-8 8-18 12-29 12s-22-4-30-12l0 0-125-121c-10-8-16-20-16-33 0-23 18-42 42-42 13 0 24 6 32 15l0 0 54 53v-235c0-23 19-42 42-42s42 19 42 42v0 233l53-55c8-8 18-13 30-13s22 5 30 13l0 0c8 8 13 18 13 30s-5 22-13 30l0 0z" horiz-adv-x="1000" />

<glyph glyph-name="cloud-upload-outline" unicode="&#xe89e;" d="M530 380c-8 8-18 12-29 12s-22-4-30-12l0 0-125-121c-10-8-16-20-16-33 0-23 18-42 42-42 13 0 24 6 32 15l0 0 54 53v-235c0-23 19-42 42-42s42 19 42 42v0 233l53-55c8-8 18-13 30-13s22 5 30 13l0 0c8 8 13 18 13 30s-5 22-13 30l0 0z m206 178c-35 98-127 168-236 168s-201-70-235-166l-1-2c-103-14-181-101-181-206 0-53 20-101 52-138l0 0c7-13 21-22 37-22 23 0 42 19 42 42 0 13-6 25-16 33l0 0c-20 22-31 51-31 83 0 69 55 125 125 125 0 0 0 0 0 0h4c0 0 1 0 1 0 20 0 37 14 41 33l0 0c17 75 84 131 163 131s146-56 163-130l0-1c4-19 21-33 41-33 0 0 1 0 1 0l0 0h2c0 0 0 0 1 0 69 0 125-56 125-125 0-32-12-61-32-83l0 0c-6-7-10-17-10-27 0-13 5-24 14-32l0 0c7-6 17-11 27-11l0 0c0 0 0 0 1 0 12 0 23 5 31 14l0 0c34 37 55 86 55 140 0 107-80 194-183 207l-1 0z" horiz-adv-x="1000" />

<glyph glyph-name="code" unicode="&#xe89f;" d="M360 632c-7 6-17 10-27 10-13 0-24-6-32-15l-208-250c-6-7-9-16-9-26s3-20 9-27l0 0 201-250c8-10 20-16 33-16 0 0 0 0 0 0h0c23 1 41 19 41 42 0 10-3 19-9 26l0 0-180 224 186 223c6 7 10 17 10 27 0 13-6 24-15 32l0 0z m548-256l-200 250c-8 10-19 16-33 16-9 0-18-4-25-9l0 0c-10-8-16-20-16-33 0-10 3-19 9-26l0 0 178-224-186-224c-6-7-9-16-9-26 0-13 5-24 14-32l0 0c7-6 17-10 27-10h0c13 0 24 6 32 15l0 0 208 250c6 7 10 17 10 27 0 10-3 19-9 26l0 0z" horiz-adv-x="1000" />

<glyph glyph-name="code-download" unicode="&#xe8a0;" d="M179 350l186 223c8 8 12 18 12 30 0 23-19 42-42 42-14 0-26-7-34-18l0 0-208-250c-6-7-9-16-9-26s3-20 9-27l0 0 201-250c8-10 20-16 33-16 0 0 0 0 0 0h0c23 1 41 19 41 42 0 10-3 19-9 26l0 0z m729 26l-200 250c-7 7-18 12-29 12-23 0-42-19-42-42 0-8 2-16 6-22l0 0 178-224-186-224c-6-7-9-16-9-26 0-13 5-24 14-32l0 0c7-6 17-10 27-10h0c13 0 24 6 32 15l0 0 208 250c6 7 10 17 10 27 0 10-3 19-9 26l0 0z m-253-1c-8 8-18 12-29 12s-22-4-30-12l0 0-54-52v194c0 23-19 42-42 42s-42-19-42-42v0-192l-53 55c-8 8-18 12-30 12-23 0-42-19-42-42 0-12 4-22 12-30l125-125c8-7 18-12 29-12 1 0 1 0 1 0h0c11 0 22 5 29 12l0 0 125 121c8 8 13 18 13 30 0 11-5 22-12 29l0 0z" horiz-adv-x="1000" />

<glyph glyph-name="code-download-outline" unicode="&#xe8a1;" d="M179 350l186 223c8 8 12 18 12 30 0 23-19 42-42 42-14 0-26-7-34-18l0 0-208-250c-6-7-9-16-9-26s3-20 9-27l0 0 201-250c8-10 20-16 33-16 0 0 0 0 0 0h0c23 1 41 19 41 42 0 10-3 19-9 26l0 0z m729 26l-200 250c-7 7-18 12-29 12-23 0-42-19-42-42 0-8 2-16 6-22l0 0 178-224-186-224c-6-7-9-16-9-26 0-13 5-24 14-32l0 0c7-6 17-10 27-10h0c13 0 24 6 32 15l0 0 208 250c6 7 10 17 10 27 0 10-3 19-9 26l0 0z m-253-1c-8 8-18 12-29 12s-22-4-30-12l0 0-54-52v194c0 23-19 42-42 42s-42-19-42-42v0-192l-53 55c-8 8-18 12-30 12-23 0-42-19-42-42 0-12 4-22 12-30l125-125c8-7 18-12 29-12 1 0 1 0 1 0h0c11 0 22 5 29 12l0 0 125 121c8 8 13 18 13 30 0 11-5 22-12 29l0 0z" horiz-adv-x="1000" />

<glyph glyph-name="code-outline" unicode="&#xe8a2;" d="M360 632c-7 6-17 10-27 10-13 0-24-6-32-15l-208-250c-6-7-9-16-9-26s3-20 9-27l0 0 201-250c8-10 20-16 33-16 0 0 0 0 0 0h0c23 1 41 19 41 42 0 10-3 19-9 26l0 0-180 224 186 223c6 7 10 17 10 27 0 13-6 24-15 32l0 0z m548-256l-200 250c-8 10-19 16-33 16-9 0-18-4-25-9l0 0c-10-8-16-20-16-33 0-10 3-19 9-26l0 0 178-224-186-224c-6-7-9-16-9-26 0-13 5-24 14-32l0 0c7-6 17-10 27-10h0c13 0 24 6 32 15l0 0 208 250c6 7 10 17 10 27 0 10-3 19-9 26l0 0z" horiz-adv-x="1000" />

<glyph glyph-name="collapse" unicode="&#xe8a3;" d="M792 475h-108l137 137c10 8 16 20 16 33 0 23-19 42-42 42-13 0-25-6-33-16l0 0-137-136v107c-1 23-19 41-42 41 0 0 0 0 0 0h0c-22 0-40-19-41-41l0 0v-209c1-22 19-40 41-41l0 0h209c20 3 36 21 36 42s-16 38-36 41l0 0z m-375-167h-209c-20-3-35-21-35-41s15-39 35-42l0 0h107l-136-137c-7-8-12-18-12-29s5-22 12-30l0 0c8-7 18-12 30-12s21 5 29 12l137 137v-108c1-23 19-41 42-41 0 0 0 0 0 0h0c22 1 41 19 41 41l0 0v209c0 22-19 41-41 41l0 0z" horiz-adv-x="1000" />

<glyph glyph-name="collapse-outline" unicode="&#xe8a4;" d="M792 475h-108l137 137c10 8 16 20 16 33 0 23-19 42-42 42-13 0-25-6-33-16l0 0-137-136v107c-1 23-19 41-42 41 0 0 0 0 0 0h0c-22 0-40-19-41-41l0 0v-209c1-22 19-40 41-41l0 0h209c20 3 36 21 36 42s-16 38-36 41l0 0z m-375-167h-209c-20-3-35-21-35-41s15-39 35-42l0 0h107l-136-137c-7-8-12-18-12-29s5-22 12-30l0 0c8-7 18-12 30-12s21 5 29 12l137 137v-108c1-23 19-41 42-41 0 0 0 0 0 0h0c22 1 41 19 41 41l0 0v209c0 22-19 41-41 41l0 0z" horiz-adv-x="1000" />

<glyph glyph-name="color-palette" unicode="&#xe8a5;" d="M814 638c-80 80-190 129-312 129-2 0-4 0-6 0l0 0c0 0-1 0-1 0-230 0-417-187-417-417 0-230 186-416 416-417h0c1 0 1 0 2 0 49 0 91 33 104 78l0 1c2 7 3 16 3 25 0 27-10 51-27 70l0 0c-3 4-5 9-5 14 0 11 9 21 20 21l0 0h69c1 0 1 0 2 0 134 0 244 104 255 235l0 1c0 3 0 7 0 11 0 97-39 185-103 249l0 0z m-529-402c-10-7-22-11-35-11-35 0-63 28-63 63s28 63 63 63c21 0 41-11 52-28l0 0c7-10 11-22 11-35 0-22-11-41-28-52l0 0z m61 229c-11-20-32-34-56-34-35 0-63 28-63 63s28 63 63 63c12 0 24-3 33-9l0 0c18-11 30-31 30-54 0-10-2-20-7-29l0 0z m112 93c-35 0-63 28-63 63s28 63 63 63c35 0 63-28 63-63v0c0-35-28-63-63-63v0z m240-33c-9-6-21-9-33-9-35 0-63 28-63 63s28 63 63 63c24 0 45-14 56-34l0 0c5-8 7-18 7-29 0-23-12-43-30-54l0 0z" horiz-adv-x="1000" />

<glyph glyph-name="color-palette-outline" unicode="&#xe8a6;" d="M814 638c-80 80-190 129-312 129-2 0-4 0-6 0l0 0c0 0-1 0-1 0-230 0-417-187-417-417 0-230 186-416 416-417h0c1 0 1 0 2 0 49 0 91 33 104 78l0 1c2 7 3 16 3 25 0 27-10 51-27 70l0 0c-3 4-5 9-5 14 0 11 9 21 20 21l0 0h69c1 0 1 0 2 0 134 0 244 104 255 235l0 1c0 3 0 7 0 11 0 97-39 185-103 249l0 0z m-152-413h-69c0 0 0 0 0 0-58 0-104-47-104-104 0-26 10-51 26-69l0 0c4-4 6-9 6-14 0-2 0-4-1-6l0 0c-2-9-12-14-25-15-182 3-328 151-328 333 0 16 1 32 3 48l0-2c25 161 161 283 327 287l0 0h3c1 0 3 0 5 0 97 0 185-39 249-103l0 0c49-49 79-117 79-191 0-3 0-6 0-8l0 0c-9-87-82-155-171-156l0 0z m-27 325c-19-11-31-31-31-55 0-34 28-63 63-63s63 29 63 63c0 12-4 23-9 32l0 0c-11 19-31 32-55 32-11 0-22-4-31-9l0 0z m-270 0c-9 6-20 9-32 9-35 0-63-28-63-63s28-63 63-63c24 0 44 13 55 32l0 0c5 9 8 19 8 31 0 23-12 43-31 54l0 0z m-108-169c-17-11-29-31-29-53 0-35 28-63 63-63s63 28 63 63c0 14-4 26-11 36l0 0c-11 17-30 27-51 27-13 0-25-3-35-10l0 0z" horiz-adv-x="1000" />

<glyph glyph-name="color-picker" unicode="&#xe8a7;" d="M808 544l-114 114c-14 15-35 24-57 24-21 0-40-8-54-21l0 0-83-83-54 52c-8 8-18 12-29 12-24 0-43-19-43-42 0-12 5-22 13-30l0 0 52-53-231-231c-13-13-21-30-23-50l0 0-18-174c0-1 0-2 0-3 0-12 5-22 12-30l0 0c8-7 18-12 29-12h4l174 16c20 2 37 10 50 23l233 233 51-52c8-8 18-13 30-13s22 5 30 13l0 0c8 8 12 18 12 30s-4 21-12 29l-52 52 83 83c14 14 22 34 22 55 0 23-10 43-25 58l0 0z m-541-316l233 232 112-112-116-117" horiz-adv-x="1000" />

<glyph glyph-name="color-picker-outline" unicode="&#xe8a8;" d="M808 544l-114 114c-14 15-35 24-57 24-21 0-40-8-54-21l0 0-83-83-54 52c-8 8-18 12-29 12-24 0-43-19-43-42 0-12 5-22 13-30l0 0 52-53-231-231c-13-13-21-30-23-50l0 0-18-174c0-1 0-2 0-3 0-12 5-22 12-30l0 0c8-7 18-12 29-12h4l174 16c20 2 37 10 50 23l233 233 51-52c8-8 18-13 30-13s22 5 30 13l0 0c8 8 12 18 12 30s-4 21-12 29l-52 52 83 83c14 14 22 34 22 55 0 23-10 43-25 58l0 0z m-430-428l-125-12 12 125 235 231 112-112z m292 292l-113 109 79 83 114-114z" horiz-adv-x="1000" />

<glyph glyph-name="compass" unicode="&#xe8a9;" d="M500 767c-230 0-417-187-417-417s187-417 417-417c230 0 417 187 417 417v0c0 230-187 417-417 417v0z m164-309l-73-178c-4-10-12-19-23-23l0 0-175-71c-5-2-10-3-16-3 0 0-1 0-2 0l0 0c-12 0-22 5-30 13l0 0h-2c-6 7-10 17-10 27 0 5 1 11 3 15l0 0 73 177c4 11 13 19 23 23l0 0 175 71c5 2 10 3 16 3 12 0 22-5 30-13l0 0c8-8 13-18 13-30 0-4-1-8-2-11l0 0z" horiz-adv-x="1000" />

<glyph glyph-name="compass-outline" unicode="&#xe8aa;" d="M500 767c-230 0-417-187-417-417s187-417 417-417c230 0 417 187 417 417v0c0 230-187 417-417 417v0z m0-750c-184 0-333 149-333 333s149 333 333 333c184 0 333-149 333-333v0c0-184-149-333-333-333v0z m153 486c-8 8-19 14-31 14-5 0-10-1-14-3l0 0-176-71c-10-4-19-12-23-23l0 0-73-177c-2-4-2-9-2-14 0-11 4-21 10-28l0 0h2c7-10 17-16 29-18l0 0c0 0 0 0 0 0 6 0 11 1 16 3l0 0 175 71c11 4 19 13 23 23l0 0 73 178c2 5 3 10 3 16 0 11-5 21-12 29l0 0z m-203-203l30 72 70 28-30-72z" horiz-adv-x="1000" />

<glyph glyph-name="copy" unicode="&#xe8ab;" d="M750 475h-125v139c-1 61-50 110-111 111h-278c-61-1-110-50-111-111v-278c1-61 50-110 111-111h139v-125c0-69 56-125 125-125v0h250c69 0 125 56 125 125v0 250c0 69-56 125-125 125v0z m-375-125v-42h-139c-15 0-28 13-28 28v0 278c0 16 13 28 28 28v0h278c16 0 28-12 28-28v0-139h-42c-69 0-125-56-125-125v0z" horiz-adv-x="1000" />

<glyph glyph-name="copy-outline" unicode="&#xe8ac;" d="M750-25h-250c-69 0-125 56-125 125v0 250c0 69 56 125 125 125v0h250c69 0 125-56 125-125v0-250c0-69-56-125-125-125v0z m-250 417c-23 0-42-19-42-42v0-250c0-23 19-42 42-42v0h250c23 0 42 19 42 42v0 250c0 23-19 42-42 42v0z m-95-167h-169c-61 1-110 50-111 111v278c1 61 50 110 111 111h278c61-1 110-50 111-111v-156h-83v156c0 16-12 28-28 28v0h-278c-15 0-28-12-28-28v0-278c0-15 13-28 28-28v0h169z" horiz-adv-x="1000" />

<glyph glyph-name="corner-down-left" unicode="&#xe8ad;" d="M830 601c0 23-19 42-42 42v0c-23-1-41-19-41-42 0 0 0 0 0 0v0-207c0 0 0 0 0-1 0-11-5-21-12-29l0 0c-8-7-18-12-29-12-1 0-1 0-1 0h-370l112 141c1 4 2 8 2 13 0 23-19 42-42 42-8 0-16-3-23-7l0 0-166-207c-6-7-9-16-9-26s3-19 9-26l0 0 166-207c8-9 19-16 32-16l0 0c0 0 0 0 0 0 10 0 19 3 26 9l0 0c10 8 15 19 15 33 0 10-3 19-9 26l0 0-110 139h370c69 1 124 56 124 125 0 0 0 0 0 0v0z" horiz-adv-x="1000" />

<glyph glyph-name="corner-down-left-outline" unicode="&#xe8ae;" d="M830 601c0 23-19 42-42 42v0c-23-1-41-19-41-42 0 0 0 0 0 0v0-207c0 0 0 0 0-1 0-11-5-21-12-29l0 0c-8-7-18-12-29-12-1 0-1 0-1 0h-370l112 141c1 4 2 8 2 13 0 23-19 42-42 42-8 0-16-3-23-7l0 0-166-207c-6-7-9-16-9-26s3-19 9-26l0 0 166-207c8-9 19-16 32-16l0 0c0 0 0 0 0 0 10 0 19 3 26 9l0 0c10 8 15 19 15 33 0 10-3 19-9 26l0 0-110 139h370c69 1 124 56 124 125 0 0 0 0 0 0v0z" horiz-adv-x="1000" />

<glyph glyph-name="corner-down-right" unicode="&#xe8af;" d="M824 334l-166 209c-7 7-18 12-29 12-23 0-42-19-42-42 0-8 2-16 6-22l0 0 112-141h-372c-23 1-41 19-41 42 0 0 0 0 0 0v0 208c0 23-19 42-42 42s-42-19-42-42v0-208c0-69 56-125 125-125v0h372l-112-141c-5-7-9-16-9-26 0-13 6-24 15-32l0 0c7-6 16-10 26-10l0 0c0 0 0 0 0 0 13 0 25 6 33 16l0 0 166 209c5 7 9 16 9 26s-4 18-9 25l0 0z" horiz-adv-x="1000" />

<glyph glyph-name="corner-down-right-outline" unicode="&#xe8b0;" d="M824 334l-166 209c-7 7-18 12-29 12-23 0-42-19-42-42 0-8 2-16 6-22l0 0 112-141h-372c-23 1-41 19-41 42 0 0 0 0 0 0v0 208c0 23-19 42-42 42s-42-19-42-42v0-208c0-69 56-125 125-125v0h372l-112-141c-5-7-9-16-9-26 0-13 6-24 15-32l0 0c7-6 16-10 26-10l0 0c0 0 0 0 0 0 13 0 25 6 33 16l0 0 166 209c5 7 9 16 9 26s-4 18-9 25l0 0z" horiz-adv-x="1000" />

<glyph glyph-name="corner-left-down" unicode="&#xe8b1;" d="M750 642h-208c-69 0-125-56-125-125v0-372l-141 113c-6 4-14 6-22 6-23 0-42-19-42-42 0-11 5-21 12-29l0 0 209-167c7-5 16-9 26-9s18 4 25 9l0 0 209 167c12 8 20 21 20 36 0 23-18 42-42 42-11 0-22-5-30-13l0 0-141-113v372c1 23 19 41 42 41 0 0 0 0 0 0h208c23 0 42 19 42 42s-19 42-42 42v0z" horiz-adv-x="1000" />

<glyph glyph-name="corner-left-down-outline" unicode="&#xe8b2;" d="M750 642h-208c-69 0-125-56-125-125v0-372l-141 113c-6 4-14 6-22 6-23 0-42-19-42-42 0-11 5-21 12-29l0 0 209-167c7-5 16-9 26-9s18 4 25 9l0 0 209 167c12 8 20 21 20 36 0 23-18 42-42 42-11 0-22-5-30-13l0 0-141-113v372c1 23 19 41 42 41 0 0 0 0 0 0h208c23 0 42 19 42 42s-19 42-42 42v0z" horiz-adv-x="1000" />

<glyph glyph-name="corner-left-up" unicode="&#xe8b3;" d="M750 142h-208c0 0 0 0 0 0-23 0-41 18-42 41l0 0v372l141-112c7-6 16-10 26-10l0 0c13 0 24 7 32 16l0 0c6 7 9 16 9 27 0 13-6 24-15 32l0 0-209 166c-7 5-16 9-25 9s-19-4-26-9l0 0-209-166c-7-7-12-18-12-29 0-23 19-42 42-42 8 0 16 2 22 6l0 0 141 112v-372c0-69 56-125 125-125v0h208c23 0 42 19 42 42s-19 42-42 42v0z" horiz-adv-x="1000" />

<glyph glyph-name="corner-left-up-outline" unicode="&#xe8b4;" d="M750 142h-208c0 0 0 0 0 0-23 0-41 18-42 41l0 0v372l141-112c7-6 16-10 26-10l0 0c13 0 24 7 32 16l0 0c6 7 9 16 9 27 0 13-6 24-15 32l0 0-209 166c-7 5-16 9-25 9s-19-4-26-9l0 0-209-166c-7-7-12-18-12-29 0-23 19-42 42-42 8 0 16 2 22 6l0 0 141 112v-372c0-69 56-125 125-125v0h208c23 0 42 19 42 42s-19 42-42 42v0z" horiz-adv-x="1000" />

<glyph glyph-name="corner-right-down" unicode="&#xe8b5;" d="M783 251c-8 10-20 16-33 16-10 0-19-3-26-9l0 0-141-113v372c0 69-56 125-125 125v0h-208c-23 0-42-19-42-42s19-42 42-42v0h208c0 0 0 0 0 0 23 0 41-18 42-41l0 0v-372l-141 113c-6 3-12 5-19 5-24 0-42-19-42-42 0-11 4-21 10-28l0 0 208-167c7-6 16-9 26-9s19 3 26 9l0 0 208 167c10 8 16 20 16 33 0 9-4 18-9 25l0 0z" horiz-adv-x="1000" />

<glyph glyph-name="corner-right-down-outline" unicode="&#xe8b6;" d="M783 251c-8 10-20 16-33 16-10 0-19-3-26-9l0 0-141-113v372c0 69-56 125-125 125v0h-208c-23 0-42-19-42-42s19-42 42-42v0h208c0 0 0 0 0 0 23 0 41-18 42-41l0 0v-372l-141 113c-6 3-12 5-19 5-24 0-42-19-42-42 0-11 4-21 10-28l0 0 208-167c7-6 16-9 26-9s19 3 26 9l0 0 208 167c10 8 16 20 16 33 0 9-4 18-9 25l0 0z" horiz-adv-x="1000" />

<glyph glyph-name="corner-right-up" unicode="&#xe8b7;" d="M776 508l-208 166c-7 6-16 9-26 9s-19-3-26-9l0 0-208-166c-6-7-10-17-10-28 0-23 18-42 42-42 7 0 13 2 19 5l0 0 141 112v-372c-1-23-19-41-42-41 0 0 0 0 0 0h-208c-23 0-42-19-42-42s19-42 42-42v0h208c69 0 125 56 125 125v0 372l141-112c7-6 16-10 26-10l0 0c0 0 0 0 0 0 13 0 25 6 33 16l0 0c6 7 9 16 9 26 0 13-6 25-16 33l0 0z" horiz-adv-x="1000" />

<glyph glyph-name="corner-right-up-outline" unicode="&#xe8b8;" d="M776 508l-208 166c-7 6-16 9-26 9s-19-3-26-9l0 0-208-166c-6-7-10-17-10-28 0-23 18-42 42-42 7 0 13 2 19 5l0 0 141 112v-372c-1-23-19-41-42-41 0 0 0 0 0 0h-208c-23 0-42-19-42-42s19-42 42-42v0h208c69 0 125 56 125 125v0 372l141-112c7-6 16-10 26-10l0 0c0 0 0 0 0 0 13 0 25 6 33 16l0 0c6 7 9 16 9 26 0 13-6 25-16 33l0 0z" horiz-adv-x="1000" />

<glyph glyph-name="corner-up-left" unicode="&#xe8b9;" d="M667 433h-372l113 141c8 8 13 18 13 30 0 24-19 42-42 42-15 0-28-8-36-20l0 0-167-208c-6-7-9-16-9-26s3-19 9-26l0 0 167-208c8-9 19-16 32-16l0 0c0 0 0 0 0 0 10 0 19 3 26 9l0 0c10 8 16 20 16 33 0 9-4 18-9 25l0 0-113 141h372c23 0 41-19 41-42 0 0 0 0 0 0v0-208c0-23 19-42 42-42s42 19 42 42v0 208c0 69-56 125-125 125v0z" horiz-adv-x="1000" />

<glyph glyph-name="corner-up-left-outline" unicode="&#xe8ba;" d="M667 433h-372l113 141c8 8 13 18 13 30 0 24-19 42-42 42-15 0-28-8-36-20l0 0-167-208c-6-7-9-16-9-26s3-19 9-26l0 0 167-208c8-9 19-16 32-16l0 0c0 0 0 0 0 0 10 0 19 3 26 9l0 0c10 8 16 20 16 33 0 9-4 18-9 25l0 0-113 141h372c23 0 41-19 41-42 0 0 0 0 0 0v0-208c0-23 19-42 42-42s42 19 42 42v0 208c0 69-56 125-125 125v0z" horiz-adv-x="1000" />

<glyph glyph-name="corner-up-right" unicode="&#xe8bb;" d="M824 418l-166 208c-7 7-18 12-29 12-23 0-42-19-42-42 0-8 2-16 6-22l0 0 112-141h-372c-69 0-125-56-125-125v0-208c0-23 19-42 42-42s42 19 42 42v0 208c0 0 0 0 0 0 0 23 18 41 41 42l0 0h372l-112-141c-5-7-9-16-9-26 0-13 6-24 15-32l0 0c7-6 16-9 26-9 0 0 0 0 0 0h0c0 0 0 0 0 0 13 0 25 6 33 16l0 0 166 208c6 7 9 16 9 26s-3 19-9 26l0 0z" horiz-adv-x="1000" />

<glyph glyph-name="corner-up-right-outline" unicode="&#xe8bc;" d="M824 418l-166 208c-7 7-18 12-29 12-23 0-42-19-42-42 0-8 2-16 6-22l0 0 112-141h-372c-69 0-125-56-125-125v0-208c0-23 19-42 42-42s42 19 42 42v0 208c0 0 0 0 0 0 0 23 18 41 41 42l0 0h372l-112-141c-5-7-9-16-9-26 0-13 6-24 15-32l0 0c7-6 16-9 26-9 0 0 0 0 0 0h0c0 0 0 0 0 0 13 0 25 6 33 16l0 0 166 208c6 7 9 16 9 26s-3 19-9 26l0 0z" horiz-adv-x="1000" />

<glyph glyph-name="credit-card" unicode="&#xe8bd;" d="M792 642h-584c-69 0-125-56-125-125v0-334c0-69 56-125 125-125v0h584c69 0 125 56 125 125v0 334c0 69-56 125-125 125v0z m-334-417h-166c-20 3-35 21-35 42s15 38 35 41l0 0h166c20-3 36-21 36-41s-16-39-36-42l0 0z m250 0h-83c-20 3-35 21-35 42s15 38 35 41l0 0h83c20-3 36-21 36-41s-16-39-36-42l0 0z m125 250h-666v42c1 22 19 41 41 41l0 0h584c22 0 41-19 41-41l0 0z" horiz-adv-x="1000" />

<glyph glyph-name="credit-card-outline" unicode="&#xe8be;" d="M792 642h-584c-69 0-125-56-125-125v0-334c0-69 56-125 125-125v0h584c69 0 125 56 125 125v0 334c0 69-56 125-125 125v0z m-625-125c1 22 19 41 41 41l0 0h584c22 0 41-19 41-41l0 0v-42h-666z m666-334c0-22-19-40-41-41l0 0h-584c-22 1-40 19-41 41l0 0v209h666z m-541 42h166c20 3 36 21 36 42s-16 38-36 41l0 0h-166c-20-3-36-21-36-41s16-39 36-42l0 0z m333 0h83c20 3 36 21 36 42s-16 38-36 41l0 0h-83c-20-3-36-21-36-41s16-39 36-42l0 0z" horiz-adv-x="1000" />

<glyph glyph-name="crop" unicode="&#xe8bf;" d="M875 183h-125v310c0 59-48 107-107 107v0h-310v125c-3 20-21 36-41 36s-39-16-42-36l0 0v-125h-125c-20-3-35-21-35-41s15-39 35-42l0 0h125v-310c0-59 48-107 107-107v0h310v-125c3-20 21-36 42-36s38 16 41 36l0 0v125h125c20 3 36 21 36 42s-16 38-36 41l0 0z m-518 0c0 0-1 0-1 0-13 0-23 10-23 23 0 0 0 1 0 1l0 0v310h310c0 0 1 0 1 0 13 0 23-10 23-23 0 0 0-1 0-1l0 0v-310z" horiz-adv-x="1000" />

<glyph glyph-name="crop-outline" unicode="&#xe8c0;" d="M875 183h-125v310c0 59-48 107-107 107v0h-310v125c-3 20-21 36-41 36s-39-16-42-36l0 0v-125h-125c-20-3-35-21-35-41s15-39 35-42l0 0h125v-310c0-59 48-107 107-107v0h310v-125c3-20 21-36 42-36s38 16 41 36l0 0v125h125c20 3 36 21 36 42s-16 38-36 41l0 0z m-518 0c0 0-1 0-1 0-13 0-23 10-23 23 0 0 0 1 0 1l0 0v310h310c0 0 1 0 1 0 13 0 23-10 23-23 0 0 0-1 0-1l0 0v-310z" horiz-adv-x="1000" />

<glyph glyph-name="cross-hair" unicode="&#xe8c1;" d="M679 313c-21 0-37 16-37 37s16 38 37 38h238c-21 195-179 358-375 375v-238c0-21-17-37-38-37s-37 16-37 37v242c-196-21-359-179-375-375h233c21 0 38-17 38-38s-17-37-38-37h-242c21-196 180-359 375-375v233c0 21 17 38 38 38s37-17 37-38v-242c196 21 359 180 375 375h-229z" horiz-adv-x="1000" />

</font>
</defs>
</svg>
